G75*
G70*
%OFA0B0*%
%FSLAX24Y24*%
%IPPOS*%
%LPD*%
%AMOC8*
5,1,8,0,0,1.08239X$1,22.5*
%
%ADD10C,0.0000*%
%ADD11R,0.0098X0.0098*%
%ADD12C,0.0060*%
%ADD13C,0.0020*%
%ADD14C,0.0050*%
%ADD15C,0.0080*%
%ADD16R,0.0039X0.0039*%
%ADD17R,0.0315X0.0039*%
%ADD18R,0.0472X0.0039*%
%ADD19R,0.0197X0.0039*%
%ADD20R,0.0512X0.0039*%
%ADD21R,0.0394X0.0039*%
%ADD22R,0.0236X0.0039*%
%ADD23R,0.0433X0.0039*%
%ADD24R,0.0354X0.0039*%
%ADD25R,0.0118X0.0039*%
%ADD26R,0.0276X0.0039*%
%ADD27R,0.0157X0.0039*%
%ADD28R,0.0079X0.0039*%
%ADD29R,0.0551X0.0039*%
%ADD30R,0.0709X0.0039*%
%ADD31R,0.0591X0.0039*%
%ADD32R,0.0630X0.0039*%
%ADD33R,0.2087X0.0039*%
%ADD34R,0.1535X0.0039*%
%ADD35R,0.1260X0.0039*%
%ADD36R,0.0669X0.0039*%
%ADD37R,0.0945X0.0039*%
%ADD38R,0.0787X0.0039*%
%ADD39R,0.0748X0.0039*%
%ADD40R,0.1024X0.0039*%
%ADD41R,0.0906X0.0039*%
%ADD42R,0.1693X0.0039*%
%ADD43R,0.1102X0.0039*%
%ADD44R,0.1063X0.0039*%
%ADD45R,0.0984X0.0039*%
%ADD46R,0.0866X0.0039*%
%ADD47R,0.0827X0.0039*%
%ADD48R,0.1417X0.0039*%
%ADD49R,0.1142X0.0039*%
%ADD50R,0.1299X0.0039*%
%ADD51R,0.1654X0.0039*%
%ADD52R,0.1181X0.0039*%
%ADD53R,0.1378X0.0039*%
%ADD54R,0.1457X0.0039*%
%ADD55R,0.2362X0.0039*%
%ADD56R,0.2559X0.0039*%
%ADD57R,0.1339X0.0039*%
%ADD58R,0.1850X0.0039*%
%ADD59R,0.2008X0.0039*%
%ADD60R,0.2165X0.0039*%
%ADD61R,0.2283X0.0039*%
%ADD62R,0.2323X0.0039*%
%ADD63R,0.2244X0.0039*%
%ADD64R,0.2205X0.0039*%
%ADD65R,0.2638X0.0039*%
%ADD66R,0.2441X0.0039*%
%ADD67R,0.2126X0.0039*%
%ADD68R,0.1929X0.0039*%
%ADD69R,0.1614X0.0039*%
%ADD70R,0.1220X0.0039*%
%ADD71R,0.1496X0.0039*%
%ADD72R,0.3189X0.0039*%
%ADD73R,0.3228X0.0039*%
%ADD74R,0.3268X0.0039*%
%ADD75R,0.3307X0.0039*%
%ADD76R,0.3346X0.0039*%
%ADD77R,0.3386X0.0039*%
%ADD78R,0.3425X0.0039*%
%ADD79R,0.3465X0.0039*%
%ADD80R,0.3504X0.0039*%
%ADD81R,0.3543X0.0039*%
%ADD82R,0.3583X0.0039*%
%ADD83R,0.3622X0.0039*%
%ADD84R,0.3150X0.0039*%
%ADD85R,0.3031X0.0039*%
%ADD86R,0.2953X0.0039*%
%ADD87R,0.2874X0.0039*%
%ADD88R,0.2756X0.0039*%
%ADD89R,0.2677X0.0039*%
%ADD90R,0.2598X0.0039*%
%ADD91R,0.2480X0.0039*%
D10*
X000655Y002624D02*
X000655Y018372D01*
X001994Y018372D02*
X001996Y018422D01*
X002002Y018472D01*
X002012Y018521D01*
X002026Y018569D01*
X002043Y018616D01*
X002064Y018661D01*
X002089Y018705D01*
X002117Y018746D01*
X002149Y018785D01*
X002183Y018822D01*
X002220Y018856D01*
X002260Y018886D01*
X002302Y018913D01*
X002346Y018937D01*
X002392Y018958D01*
X002439Y018974D01*
X002487Y018987D01*
X002537Y018996D01*
X002586Y019001D01*
X002637Y019002D01*
X002687Y018999D01*
X002736Y018992D01*
X002785Y018981D01*
X002833Y018966D01*
X002879Y018948D01*
X002924Y018926D01*
X002967Y018900D01*
X003008Y018871D01*
X003047Y018839D01*
X003083Y018804D01*
X003115Y018766D01*
X003145Y018726D01*
X003172Y018683D01*
X003195Y018639D01*
X003214Y018593D01*
X003230Y018545D01*
X003242Y018496D01*
X003250Y018447D01*
X003254Y018397D01*
X003254Y018347D01*
X003250Y018297D01*
X003242Y018248D01*
X003230Y018199D01*
X003214Y018151D01*
X003195Y018105D01*
X003172Y018061D01*
X003145Y018018D01*
X003115Y017978D01*
X003083Y017940D01*
X003047Y017905D01*
X003008Y017873D01*
X002967Y017844D01*
X002924Y017818D01*
X002879Y017796D01*
X002833Y017778D01*
X002785Y017763D01*
X002736Y017752D01*
X002687Y017745D01*
X002637Y017742D01*
X002586Y017743D01*
X002537Y017748D01*
X002487Y017757D01*
X002439Y017770D01*
X002392Y017786D01*
X002346Y017807D01*
X002302Y017831D01*
X002260Y017858D01*
X002220Y017888D01*
X002183Y017922D01*
X002149Y017959D01*
X002117Y017998D01*
X002089Y018039D01*
X002064Y018083D01*
X002043Y018128D01*
X002026Y018175D01*
X002012Y018223D01*
X002002Y018272D01*
X001996Y018322D01*
X001994Y018372D01*
X000655Y018372D02*
X000657Y018466D01*
X000664Y018559D01*
X000675Y018652D01*
X000691Y018745D01*
X000711Y018836D01*
X000735Y018927D01*
X000763Y019016D01*
X000796Y019104D01*
X000833Y019190D01*
X000874Y019274D01*
X000919Y019357D01*
X000968Y019437D01*
X001020Y019514D01*
X001076Y019589D01*
X001136Y019661D01*
X001199Y019731D01*
X001265Y019797D01*
X001335Y019860D01*
X001407Y019920D01*
X001482Y019976D01*
X001559Y020028D01*
X001639Y020077D01*
X001722Y020122D01*
X001806Y020163D01*
X001892Y020200D01*
X001980Y020233D01*
X002069Y020261D01*
X002160Y020285D01*
X002251Y020305D01*
X002344Y020321D01*
X002437Y020332D01*
X002530Y020339D01*
X002624Y020341D01*
X002624Y020340D02*
X018372Y020340D01*
X017742Y018372D02*
X017744Y018422D01*
X017750Y018472D01*
X017760Y018521D01*
X017774Y018569D01*
X017791Y018616D01*
X017812Y018661D01*
X017837Y018705D01*
X017865Y018746D01*
X017897Y018785D01*
X017931Y018822D01*
X017968Y018856D01*
X018008Y018886D01*
X018050Y018913D01*
X018094Y018937D01*
X018140Y018958D01*
X018187Y018974D01*
X018235Y018987D01*
X018285Y018996D01*
X018334Y019001D01*
X018385Y019002D01*
X018435Y018999D01*
X018484Y018992D01*
X018533Y018981D01*
X018581Y018966D01*
X018627Y018948D01*
X018672Y018926D01*
X018715Y018900D01*
X018756Y018871D01*
X018795Y018839D01*
X018831Y018804D01*
X018863Y018766D01*
X018893Y018726D01*
X018920Y018683D01*
X018943Y018639D01*
X018962Y018593D01*
X018978Y018545D01*
X018990Y018496D01*
X018998Y018447D01*
X019002Y018397D01*
X019002Y018347D01*
X018998Y018297D01*
X018990Y018248D01*
X018978Y018199D01*
X018962Y018151D01*
X018943Y018105D01*
X018920Y018061D01*
X018893Y018018D01*
X018863Y017978D01*
X018831Y017940D01*
X018795Y017905D01*
X018756Y017873D01*
X018715Y017844D01*
X018672Y017818D01*
X018627Y017796D01*
X018581Y017778D01*
X018533Y017763D01*
X018484Y017752D01*
X018435Y017745D01*
X018385Y017742D01*
X018334Y017743D01*
X018285Y017748D01*
X018235Y017757D01*
X018187Y017770D01*
X018140Y017786D01*
X018094Y017807D01*
X018050Y017831D01*
X018008Y017858D01*
X017968Y017888D01*
X017931Y017922D01*
X017897Y017959D01*
X017865Y017998D01*
X017837Y018039D01*
X017812Y018083D01*
X017791Y018128D01*
X017774Y018175D01*
X017760Y018223D01*
X017750Y018272D01*
X017744Y018322D01*
X017742Y018372D01*
X018372Y020341D02*
X018466Y020339D01*
X018559Y020332D01*
X018652Y020321D01*
X018745Y020305D01*
X018836Y020285D01*
X018927Y020261D01*
X019016Y020233D01*
X019104Y020200D01*
X019190Y020163D01*
X019274Y020122D01*
X019356Y020077D01*
X019437Y020028D01*
X019514Y019976D01*
X019589Y019920D01*
X019661Y019860D01*
X019731Y019797D01*
X019797Y019731D01*
X019860Y019661D01*
X019920Y019589D01*
X019976Y019514D01*
X020028Y019437D01*
X020077Y019356D01*
X020122Y019274D01*
X020163Y019190D01*
X020200Y019104D01*
X020233Y019016D01*
X020261Y018927D01*
X020285Y018836D01*
X020305Y018745D01*
X020321Y018652D01*
X020332Y018559D01*
X020339Y018466D01*
X020341Y018372D01*
X020340Y018372D02*
X020340Y002624D01*
X020341Y002624D02*
X020339Y002530D01*
X020332Y002437D01*
X020321Y002344D01*
X020305Y002251D01*
X020285Y002160D01*
X020261Y002069D01*
X020233Y001980D01*
X020200Y001892D01*
X020163Y001806D01*
X020122Y001722D01*
X020077Y001640D01*
X020028Y001559D01*
X019976Y001482D01*
X019920Y001407D01*
X019860Y001335D01*
X019797Y001265D01*
X019731Y001199D01*
X019661Y001136D01*
X019589Y001076D01*
X019514Y001020D01*
X019437Y000968D01*
X019357Y000919D01*
X019274Y000874D01*
X019190Y000833D01*
X019104Y000796D01*
X019016Y000763D01*
X018927Y000735D01*
X018836Y000711D01*
X018745Y000691D01*
X018652Y000675D01*
X018559Y000664D01*
X018466Y000657D01*
X018372Y000655D01*
X002624Y000655D01*
X002530Y000657D01*
X002437Y000664D01*
X002344Y000675D01*
X002251Y000691D01*
X002160Y000711D01*
X002069Y000735D01*
X001980Y000763D01*
X001892Y000796D01*
X001806Y000833D01*
X001722Y000874D01*
X001639Y000919D01*
X001559Y000968D01*
X001482Y001020D01*
X001407Y001076D01*
X001335Y001136D01*
X001265Y001199D01*
X001199Y001265D01*
X001136Y001335D01*
X001076Y001407D01*
X001020Y001482D01*
X000968Y001559D01*
X000919Y001640D01*
X000874Y001722D01*
X000833Y001806D01*
X000796Y001892D01*
X000763Y001980D01*
X000735Y002069D01*
X000711Y002160D01*
X000691Y002251D01*
X000675Y002344D01*
X000664Y002437D01*
X000657Y002530D01*
X000655Y002624D01*
D11*
X008079Y009905D03*
X009454Y009405D03*
X010954Y009530D03*
X012329Y010030D03*
X012454Y009030D03*
X012579Y007905D03*
X010204Y007905D03*
X010329Y006655D03*
X010329Y005405D03*
D12*
X016955Y005655D02*
X016955Y004705D01*
X016955Y004305D01*
X017755Y003955D02*
X017855Y003955D01*
X017855Y003855D01*
X018455Y003855D01*
X018455Y003955D01*
X018555Y003955D01*
X019355Y004305D02*
X019355Y004655D01*
X019355Y005655D01*
X019355Y006005D01*
X018555Y006355D02*
X018455Y006355D01*
X018455Y006455D01*
X017855Y006455D01*
X017855Y006355D01*
X017755Y006355D01*
X016955Y006005D02*
X016955Y005655D01*
X018055Y005155D02*
X018057Y005175D01*
X018063Y005193D01*
X018072Y005211D01*
X018084Y005226D01*
X018099Y005238D01*
X018117Y005247D01*
X018135Y005253D01*
X018155Y005255D01*
X018175Y005253D01*
X018193Y005247D01*
X018211Y005238D01*
X018226Y005226D01*
X018238Y005211D01*
X018247Y005193D01*
X018253Y005175D01*
X018255Y005155D01*
X018253Y005135D01*
X018247Y005117D01*
X018238Y005099D01*
X018226Y005084D01*
X018211Y005072D01*
X018193Y005063D01*
X018175Y005057D01*
X018155Y005055D01*
X018135Y005057D01*
X018117Y005063D01*
X018099Y005072D01*
X018084Y005084D01*
X018072Y005099D01*
X018063Y005117D01*
X018057Y005135D01*
X018055Y005155D01*
X017455Y005155D02*
X017457Y005207D01*
X017463Y005259D01*
X017473Y005311D01*
X017486Y005361D01*
X017503Y005411D01*
X017524Y005459D01*
X017549Y005505D01*
X017577Y005549D01*
X017608Y005591D01*
X017642Y005631D01*
X017679Y005668D01*
X017719Y005702D01*
X017761Y005733D01*
X017805Y005761D01*
X017851Y005786D01*
X017899Y005807D01*
X017949Y005824D01*
X017999Y005837D01*
X018051Y005847D01*
X018103Y005853D01*
X018155Y005855D01*
X018207Y005853D01*
X018259Y005847D01*
X018311Y005837D01*
X018361Y005824D01*
X018411Y005807D01*
X018459Y005786D01*
X018505Y005761D01*
X018549Y005733D01*
X018591Y005702D01*
X018631Y005668D01*
X018668Y005631D01*
X018702Y005591D01*
X018733Y005549D01*
X018761Y005505D01*
X018786Y005459D01*
X018807Y005411D01*
X018824Y005361D01*
X018837Y005311D01*
X018847Y005259D01*
X018853Y005207D01*
X018855Y005155D01*
X018853Y005103D01*
X018847Y005051D01*
X018837Y004999D01*
X018824Y004949D01*
X018807Y004899D01*
X018786Y004851D01*
X018761Y004805D01*
X018733Y004761D01*
X018702Y004719D01*
X018668Y004679D01*
X018631Y004642D01*
X018591Y004608D01*
X018549Y004577D01*
X018505Y004549D01*
X018459Y004524D01*
X018411Y004503D01*
X018361Y004486D01*
X018311Y004473D01*
X018259Y004463D01*
X018207Y004457D01*
X018155Y004455D01*
X018103Y004457D01*
X018051Y004463D01*
X017999Y004473D01*
X017949Y004486D01*
X017899Y004503D01*
X017851Y004524D01*
X017805Y004549D01*
X017761Y004577D01*
X017719Y004608D01*
X017679Y004642D01*
X017642Y004679D01*
X017608Y004719D01*
X017577Y004761D01*
X017549Y004805D01*
X017524Y004851D01*
X017503Y004899D01*
X017486Y004949D01*
X017473Y004999D01*
X017463Y005051D01*
X017457Y005103D01*
X017455Y005155D01*
X017022Y018372D02*
X017024Y018445D01*
X017030Y018518D01*
X017040Y018590D01*
X017054Y018662D01*
X017071Y018733D01*
X017093Y018803D01*
X017118Y018872D01*
X017147Y018939D01*
X017179Y019004D01*
X017215Y019068D01*
X017255Y019130D01*
X017297Y019189D01*
X017343Y019246D01*
X017392Y019300D01*
X017444Y019352D01*
X017498Y019401D01*
X017555Y019447D01*
X017614Y019489D01*
X017676Y019529D01*
X017740Y019565D01*
X017805Y019597D01*
X017872Y019626D01*
X017941Y019651D01*
X018011Y019673D01*
X018082Y019690D01*
X018154Y019704D01*
X018226Y019714D01*
X018299Y019720D01*
X018372Y019722D01*
X018445Y019720D01*
X018518Y019714D01*
X018590Y019704D01*
X018662Y019690D01*
X018733Y019673D01*
X018803Y019651D01*
X018872Y019626D01*
X018939Y019597D01*
X019004Y019565D01*
X019068Y019529D01*
X019130Y019489D01*
X019189Y019447D01*
X019246Y019401D01*
X019300Y019352D01*
X019352Y019300D01*
X019401Y019246D01*
X019447Y019189D01*
X019489Y019130D01*
X019529Y019068D01*
X019565Y019004D01*
X019597Y018939D01*
X019626Y018872D01*
X019651Y018803D01*
X019673Y018733D01*
X019690Y018662D01*
X019704Y018590D01*
X019714Y018518D01*
X019720Y018445D01*
X019722Y018372D01*
X019720Y018299D01*
X019714Y018226D01*
X019704Y018154D01*
X019690Y018082D01*
X019673Y018011D01*
X019651Y017941D01*
X019626Y017872D01*
X019597Y017805D01*
X019565Y017740D01*
X019529Y017676D01*
X019489Y017614D01*
X019447Y017555D01*
X019401Y017498D01*
X019352Y017444D01*
X019300Y017392D01*
X019246Y017343D01*
X019189Y017297D01*
X019130Y017255D01*
X019068Y017215D01*
X019004Y017179D01*
X018939Y017147D01*
X018872Y017118D01*
X018803Y017093D01*
X018733Y017071D01*
X018662Y017054D01*
X018590Y017040D01*
X018518Y017030D01*
X018445Y017024D01*
X018372Y017022D01*
X018299Y017024D01*
X018226Y017030D01*
X018154Y017040D01*
X018082Y017054D01*
X018011Y017071D01*
X017941Y017093D01*
X017872Y017118D01*
X017805Y017147D01*
X017740Y017179D01*
X017676Y017215D01*
X017614Y017255D01*
X017555Y017297D01*
X017498Y017343D01*
X017444Y017392D01*
X017392Y017444D01*
X017343Y017498D01*
X017297Y017555D01*
X017255Y017614D01*
X017215Y017676D01*
X017179Y017740D01*
X017147Y017805D01*
X017118Y017872D01*
X017093Y017941D01*
X017071Y018011D01*
X017054Y018082D01*
X017040Y018154D01*
X017030Y018226D01*
X017024Y018299D01*
X017022Y018372D01*
X001274Y018372D02*
X001276Y018445D01*
X001282Y018518D01*
X001292Y018590D01*
X001306Y018662D01*
X001323Y018733D01*
X001345Y018803D01*
X001370Y018872D01*
X001399Y018939D01*
X001431Y019004D01*
X001467Y019068D01*
X001507Y019130D01*
X001549Y019189D01*
X001595Y019246D01*
X001644Y019300D01*
X001696Y019352D01*
X001750Y019401D01*
X001807Y019447D01*
X001866Y019489D01*
X001928Y019529D01*
X001992Y019565D01*
X002057Y019597D01*
X002124Y019626D01*
X002193Y019651D01*
X002263Y019673D01*
X002334Y019690D01*
X002406Y019704D01*
X002478Y019714D01*
X002551Y019720D01*
X002624Y019722D01*
X002697Y019720D01*
X002770Y019714D01*
X002842Y019704D01*
X002914Y019690D01*
X002985Y019673D01*
X003055Y019651D01*
X003124Y019626D01*
X003191Y019597D01*
X003256Y019565D01*
X003320Y019529D01*
X003382Y019489D01*
X003441Y019447D01*
X003498Y019401D01*
X003552Y019352D01*
X003604Y019300D01*
X003653Y019246D01*
X003699Y019189D01*
X003741Y019130D01*
X003781Y019068D01*
X003817Y019004D01*
X003849Y018939D01*
X003878Y018872D01*
X003903Y018803D01*
X003925Y018733D01*
X003942Y018662D01*
X003956Y018590D01*
X003966Y018518D01*
X003972Y018445D01*
X003974Y018372D01*
X003972Y018299D01*
X003966Y018226D01*
X003956Y018154D01*
X003942Y018082D01*
X003925Y018011D01*
X003903Y017941D01*
X003878Y017872D01*
X003849Y017805D01*
X003817Y017740D01*
X003781Y017676D01*
X003741Y017614D01*
X003699Y017555D01*
X003653Y017498D01*
X003604Y017444D01*
X003552Y017392D01*
X003498Y017343D01*
X003441Y017297D01*
X003382Y017255D01*
X003320Y017215D01*
X003256Y017179D01*
X003191Y017147D01*
X003124Y017118D01*
X003055Y017093D01*
X002985Y017071D01*
X002914Y017054D01*
X002842Y017040D01*
X002770Y017030D01*
X002697Y017024D01*
X002624Y017022D01*
X002551Y017024D01*
X002478Y017030D01*
X002406Y017040D01*
X002334Y017054D01*
X002263Y017071D01*
X002193Y017093D01*
X002124Y017118D01*
X002057Y017147D01*
X001992Y017179D01*
X001928Y017215D01*
X001866Y017255D01*
X001807Y017297D01*
X001750Y017343D01*
X001696Y017392D01*
X001644Y017444D01*
X001595Y017498D01*
X001549Y017555D01*
X001507Y017614D01*
X001467Y017676D01*
X001431Y017740D01*
X001399Y017805D01*
X001370Y017872D01*
X001345Y017941D01*
X001323Y018011D01*
X001306Y018082D01*
X001292Y018154D01*
X001282Y018226D01*
X001276Y018299D01*
X001274Y018372D01*
D13*
X016955Y005655D02*
X017055Y005655D01*
X017055Y004705D01*
X016955Y004705D01*
X019255Y004655D02*
X019355Y004655D01*
X019255Y004655D02*
X019255Y005655D01*
X019355Y005655D01*
D14*
X019630Y005685D02*
X019630Y005534D01*
X019705Y005459D01*
X019780Y005459D01*
X019855Y005534D01*
X019855Y005685D01*
X019930Y005760D01*
X020005Y005760D01*
X020080Y005685D01*
X020080Y005534D01*
X020005Y005459D01*
X019705Y005760D02*
X019630Y005685D01*
X019780Y005920D02*
X019630Y006070D01*
X020080Y006070D01*
X020080Y005920D02*
X020080Y006220D01*
D15*
X017703Y018372D02*
X017705Y018423D01*
X017711Y018474D01*
X017721Y018524D01*
X017734Y018574D01*
X017752Y018622D01*
X017772Y018669D01*
X017797Y018714D01*
X017825Y018757D01*
X017856Y018798D01*
X017890Y018836D01*
X017927Y018871D01*
X017966Y018904D01*
X018008Y018934D01*
X018052Y018960D01*
X018098Y018982D01*
X018146Y019002D01*
X018195Y019017D01*
X018245Y019029D01*
X018295Y019037D01*
X018346Y019041D01*
X018398Y019041D01*
X018449Y019037D01*
X018499Y019029D01*
X018549Y019017D01*
X018598Y019002D01*
X018646Y018982D01*
X018692Y018960D01*
X018736Y018934D01*
X018778Y018904D01*
X018817Y018871D01*
X018854Y018836D01*
X018888Y018798D01*
X018919Y018757D01*
X018947Y018714D01*
X018972Y018669D01*
X018992Y018622D01*
X019010Y018574D01*
X019023Y018524D01*
X019033Y018474D01*
X019039Y018423D01*
X019041Y018372D01*
X019039Y018321D01*
X019033Y018270D01*
X019023Y018220D01*
X019010Y018170D01*
X018992Y018122D01*
X018972Y018075D01*
X018947Y018030D01*
X018919Y017987D01*
X018888Y017946D01*
X018854Y017908D01*
X018817Y017873D01*
X018778Y017840D01*
X018736Y017810D01*
X018692Y017784D01*
X018646Y017762D01*
X018598Y017742D01*
X018549Y017727D01*
X018499Y017715D01*
X018449Y017707D01*
X018398Y017703D01*
X018346Y017703D01*
X018295Y017707D01*
X018245Y017715D01*
X018195Y017727D01*
X018146Y017742D01*
X018098Y017762D01*
X018052Y017784D01*
X018008Y017810D01*
X017966Y017840D01*
X017927Y017873D01*
X017890Y017908D01*
X017856Y017946D01*
X017825Y017987D01*
X017797Y018030D01*
X017772Y018075D01*
X017752Y018122D01*
X017734Y018170D01*
X017721Y018220D01*
X017711Y018270D01*
X017705Y018321D01*
X017703Y018372D01*
X001955Y018372D02*
X001957Y018423D01*
X001963Y018474D01*
X001973Y018524D01*
X001986Y018574D01*
X002004Y018622D01*
X002024Y018669D01*
X002049Y018714D01*
X002077Y018757D01*
X002108Y018798D01*
X002142Y018836D01*
X002179Y018871D01*
X002218Y018904D01*
X002260Y018934D01*
X002304Y018960D01*
X002350Y018982D01*
X002398Y019002D01*
X002447Y019017D01*
X002497Y019029D01*
X002547Y019037D01*
X002598Y019041D01*
X002650Y019041D01*
X002701Y019037D01*
X002751Y019029D01*
X002801Y019017D01*
X002850Y019002D01*
X002898Y018982D01*
X002944Y018960D01*
X002988Y018934D01*
X003030Y018904D01*
X003069Y018871D01*
X003106Y018836D01*
X003140Y018798D01*
X003171Y018757D01*
X003199Y018714D01*
X003224Y018669D01*
X003244Y018622D01*
X003262Y018574D01*
X003275Y018524D01*
X003285Y018474D01*
X003291Y018423D01*
X003293Y018372D01*
X003291Y018321D01*
X003285Y018270D01*
X003275Y018220D01*
X003262Y018170D01*
X003244Y018122D01*
X003224Y018075D01*
X003199Y018030D01*
X003171Y017987D01*
X003140Y017946D01*
X003106Y017908D01*
X003069Y017873D01*
X003030Y017840D01*
X002988Y017810D01*
X002944Y017784D01*
X002898Y017762D01*
X002850Y017742D01*
X002801Y017727D01*
X002751Y017715D01*
X002701Y017707D01*
X002650Y017703D01*
X002598Y017703D01*
X002547Y017707D01*
X002497Y017715D01*
X002447Y017727D01*
X002398Y017742D01*
X002350Y017762D01*
X002304Y017784D01*
X002260Y017810D01*
X002218Y017840D01*
X002179Y017873D01*
X002142Y017908D01*
X002108Y017946D01*
X002077Y017987D01*
X002049Y018030D01*
X002024Y018075D01*
X002004Y018122D01*
X001986Y018170D01*
X001973Y018220D01*
X001963Y018270D01*
X001957Y018321D01*
X001955Y018372D01*
D16*
X006639Y014962D03*
X007072Y014608D03*
X007899Y015277D03*
X010261Y014017D03*
X010458Y014017D03*
X010694Y013860D03*
X010813Y013624D03*
X010813Y013584D03*
X011009Y013624D03*
X011128Y013899D03*
X011718Y013663D03*
X011915Y013624D03*
X011915Y013584D03*
X012033Y013624D03*
X011915Y013427D03*
X012387Y013269D03*
X012387Y013230D03*
X012427Y012994D03*
X012663Y013033D03*
X012624Y013506D03*
X012663Y013624D03*
X012978Y013466D03*
X013175Y013427D03*
X013529Y013151D03*
X013726Y013191D03*
X014277Y013427D03*
X014395Y013112D03*
X014631Y013269D03*
X014789Y013348D03*
X014907Y013348D03*
X015065Y013230D03*
X015222Y013309D03*
X015340Y013309D03*
X015458Y013309D03*
X015655Y013191D03*
X015458Y012915D03*
X015025Y012954D03*
X014789Y013072D03*
X015380Y012246D03*
X015380Y012206D03*
X015970Y012915D03*
X016049Y012915D03*
X016246Y013033D03*
X016324Y013191D03*
X016364Y013309D03*
X016246Y013309D03*
X016167Y013309D03*
X016167Y013191D03*
X016718Y012954D03*
X016836Y013230D03*
X016915Y013230D03*
X017309Y013269D03*
X017348Y013387D03*
X017584Y013427D03*
X017624Y013309D03*
X017742Y014135D03*
X017742Y014175D03*
X017742Y014214D03*
X017742Y014254D03*
X017742Y014332D03*
X017742Y014450D03*
X017742Y014490D03*
X017742Y014569D03*
X016994Y014569D03*
X016994Y014529D03*
X016994Y014450D03*
X016994Y014411D03*
X016994Y014647D03*
X016561Y014687D03*
X016561Y014726D03*
X016561Y014765D03*
X016561Y014805D03*
X016561Y014844D03*
X016561Y014883D03*
X016561Y014923D03*
X016561Y014962D03*
X016561Y015041D03*
X016561Y015120D03*
X016561Y015238D03*
X016561Y015317D03*
X016403Y015356D03*
X016403Y015395D03*
X016403Y015513D03*
X016403Y015553D03*
X016443Y015592D03*
X016403Y015631D03*
X016403Y015671D03*
X016757Y015671D03*
X016797Y015789D03*
X016876Y015789D03*
X017387Y015750D03*
X017033Y015238D03*
X017033Y015120D03*
X015891Y015750D03*
X015576Y015750D03*
X015576Y015828D03*
X015458Y015750D03*
X015380Y015750D03*
X015301Y015868D03*
X015261Y015631D03*
X015025Y015277D03*
X015025Y015120D03*
X015025Y015041D03*
X014986Y015002D03*
X014986Y014962D03*
X014986Y014923D03*
X014986Y014883D03*
X014986Y014844D03*
X015183Y014608D03*
X015183Y014490D03*
X015183Y014411D03*
X015183Y014332D03*
X015183Y014293D03*
X015183Y014254D03*
X015183Y014214D03*
X015143Y014135D03*
X014474Y014569D03*
X014435Y014529D03*
X014435Y014844D03*
X014474Y014883D03*
X014435Y014962D03*
X014435Y015002D03*
X014435Y015041D03*
X014474Y015080D03*
X014435Y015120D03*
X014474Y015198D03*
X014474Y015238D03*
X014474Y015277D03*
X014474Y015356D03*
X014317Y015474D03*
X014513Y015553D03*
X014553Y015750D03*
X014317Y015750D03*
X014317Y015986D03*
X014277Y015238D03*
X014277Y015120D03*
X011521Y016065D03*
X010852Y014608D03*
X011128Y013191D03*
X010931Y012915D03*
X010813Y012915D03*
X010813Y012797D03*
X010616Y012797D03*
X011285Y012836D03*
X010419Y011852D03*
X010340Y011852D03*
X010380Y011734D03*
X010458Y011734D03*
X010104Y011734D03*
X009710Y011891D03*
X011088Y010080D03*
X011167Y009962D03*
X010537Y009962D03*
X010458Y009962D03*
X010340Y009962D03*
X010301Y009844D03*
X010458Y009844D03*
X009789Y009844D03*
X009710Y009844D03*
X009631Y009844D03*
X009592Y009962D03*
X009435Y008978D03*
X009789Y008939D03*
X009868Y008939D03*
X009946Y008939D03*
X010734Y009057D03*
X010970Y009096D03*
X011521Y009017D03*
X012269Y009608D03*
X012663Y009687D03*
X013096Y008545D03*
X013175Y008545D03*
X012978Y008427D03*
X012781Y008387D03*
X012663Y008466D03*
X012860Y007561D03*
X013254Y007639D03*
X013293Y007246D03*
X012702Y006852D03*
X012309Y006773D03*
X012230Y007246D03*
X012230Y007324D03*
X012348Y007482D03*
X012033Y007443D03*
X011954Y007443D03*
X011876Y007443D03*
X011797Y007443D03*
X011679Y007443D03*
X011521Y007324D03*
X011561Y006891D03*
X014750Y004175D03*
X014868Y004175D03*
X014868Y004057D03*
X014750Y004057D03*
X015458Y003939D03*
X016049Y003899D03*
X017033Y003663D03*
X017860Y003309D03*
X020301Y002324D03*
X015380Y006852D03*
X015261Y006852D03*
X016049Y008860D03*
X016285Y008860D03*
X016285Y011380D03*
X016206Y011380D03*
X016128Y011380D03*
X016009Y011380D03*
X015931Y011380D03*
X016324Y011498D03*
X016443Y011498D03*
X016443Y011380D03*
X016364Y011380D03*
X016718Y011616D03*
X016836Y011734D03*
X016876Y011813D03*
X016915Y011891D03*
X016954Y011931D03*
X016757Y011891D03*
X016285Y011931D03*
X016324Y012088D03*
X016324Y012167D03*
X016324Y012246D03*
X016324Y012285D03*
X010261Y018860D03*
X005498Y012718D03*
X002978Y003545D03*
X002899Y003545D03*
X002584Y003584D03*
X002506Y003584D03*
X002112Y003584D03*
X002033Y003584D03*
X001718Y003663D03*
X001521Y003506D03*
X003411Y003466D03*
X003490Y003466D03*
X003569Y003466D03*
X003923Y003466D03*
X004002Y003466D03*
X004553Y003466D03*
X004710Y003466D03*
X006364Y002128D03*
X006443Y002128D03*
X008135Y002757D03*
X008214Y002757D03*
X008293Y002757D03*
X008687Y002757D03*
X009198Y002679D03*
X010498Y002088D03*
X011049Y002994D03*
X011246Y003033D03*
X011561Y003072D03*
X011718Y003230D03*
X011915Y003230D03*
X012033Y003230D03*
X012112Y003230D03*
X012191Y003230D03*
X012269Y003230D03*
X012348Y003230D03*
X012545Y003191D03*
X014553Y002718D03*
X014828Y002561D03*
D17*
X018785Y003151D03*
X018982Y003072D03*
X019651Y002718D03*
X019848Y002600D03*
X016817Y008781D03*
X016462Y010907D03*
X016108Y010907D03*
X015950Y011694D03*
X016305Y011694D03*
X017053Y011734D03*
X015281Y011773D03*
X015242Y011813D03*
X013628Y013269D03*
X011698Y015198D03*
X011502Y015277D03*
X010832Y014529D03*
X009415Y014450D03*
X009415Y014096D03*
X007643Y015907D03*
X006856Y014608D03*
X003352Y013506D03*
X005596Y011222D03*
X004179Y010238D03*
X005911Y007561D03*
X008706Y010159D03*
X008746Y010120D03*
X007643Y010710D03*
X011305Y010080D03*
X011541Y010159D03*
X013273Y009569D03*
X013628Y009372D03*
X013588Y007679D03*
X010084Y002324D03*
X010163Y002285D03*
X010714Y002088D03*
X006541Y002246D03*
X006383Y003624D03*
X004415Y003191D03*
X004257Y003112D03*
X001147Y003466D03*
X001108Y003427D03*
D18*
X005045Y003466D03*
X007171Y002482D03*
X007289Y002521D03*
X010596Y002128D03*
X010596Y002954D03*
X014257Y002718D03*
X017801Y003387D03*
X018470Y003230D03*
X016502Y006655D03*
X016265Y006576D03*
X016580Y008860D03*
X016029Y009214D03*
X014494Y009096D03*
X014218Y009175D03*
X014100Y009214D03*
X013824Y009293D03*
X012958Y009805D03*
X012604Y009726D03*
X012250Y009647D03*
X011029Y010002D03*
X010832Y009962D03*
X012250Y008348D03*
X012683Y008427D03*
X013273Y013466D03*
X014297Y015946D03*
X017919Y013230D03*
X009415Y014214D03*
X009415Y014254D03*
X009415Y014293D03*
D19*
X009435Y014490D03*
X007466Y014608D03*
X005891Y012718D03*
X005340Y012679D03*
X005143Y012443D03*
X004907Y012915D03*
X004868Y012994D03*
X004671Y013269D03*
X004631Y013309D03*
X004592Y013348D03*
X004553Y013387D03*
X003096Y013348D03*
X003057Y013309D03*
X003017Y013269D03*
X002978Y013230D03*
X002939Y013191D03*
X002899Y013151D03*
X002860Y013112D03*
X002702Y012876D03*
X002820Y011576D03*
X002899Y011458D03*
X002978Y011340D03*
X003057Y011261D03*
X003096Y011183D03*
X003214Y011104D03*
X003254Y011065D03*
X003293Y011025D03*
X003332Y010986D03*
X003923Y010553D03*
X003962Y010474D03*
X004395Y010435D03*
X004513Y010513D03*
X004553Y010553D03*
X004671Y010631D03*
X004789Y010710D03*
X004986Y010828D03*
X005104Y010907D03*
X005143Y010946D03*
X005222Y010986D03*
X005261Y011025D03*
X005340Y011065D03*
X005380Y011104D03*
X005498Y011183D03*
X005616Y011261D03*
X005891Y010946D03*
X006167Y010631D03*
X006324Y010474D03*
X006403Y010395D03*
X006482Y010317D03*
X006679Y010120D03*
X006757Y010080D03*
X006797Y010041D03*
X006915Y009962D03*
X007309Y009450D03*
X007269Y009411D03*
X007427Y009529D03*
X007978Y009332D03*
X008057Y009293D03*
X008135Y009254D03*
X008057Y010474D03*
X007939Y010553D03*
X007860Y010592D03*
X007742Y010671D03*
X007584Y010789D03*
X007584Y010828D03*
X008883Y012206D03*
X009080Y012088D03*
X008608Y012403D03*
X005852Y012088D03*
X005813Y012009D03*
X005694Y011891D03*
X005655Y011852D03*
X006836Y008978D03*
X006679Y008781D03*
X005655Y007718D03*
X005694Y007679D03*
X005773Y007639D03*
X005616Y007757D03*
X005576Y007797D03*
X005380Y008033D03*
X005970Y007443D03*
X005852Y005907D03*
X006718Y003269D03*
X006836Y003112D03*
X006915Y003033D03*
X006954Y002994D03*
X006994Y002954D03*
X007033Y002915D03*
X007072Y002876D03*
X007151Y002836D03*
X007191Y002797D03*
X007230Y002757D03*
X006443Y002167D03*
X004080Y003033D03*
X004002Y002994D03*
X000970Y003387D03*
X000852Y003309D03*
X000734Y003230D03*
X009868Y002561D03*
X013962Y003269D03*
X014002Y003309D03*
X014041Y003348D03*
X014080Y003387D03*
X014120Y003427D03*
X014159Y003466D03*
X014198Y003506D03*
X014238Y003545D03*
X014277Y003584D03*
X014317Y003663D03*
X014356Y003702D03*
X014435Y003820D03*
X016521Y002128D03*
X016836Y002285D03*
X016876Y002324D03*
X016876Y003663D03*
X019238Y002954D03*
X019395Y002836D03*
X020222Y002403D03*
X016246Y006537D03*
X015537Y006931D03*
X015498Y006970D03*
X017072Y006970D03*
X017112Y008584D03*
X017072Y008624D03*
X017033Y008663D03*
X016954Y008702D03*
X015616Y008742D03*
X015576Y008702D03*
X015537Y008663D03*
X015498Y008624D03*
X014120Y008742D03*
X013844Y009096D03*
X013765Y009175D03*
X013529Y009411D03*
X013490Y009450D03*
X013411Y009529D03*
X013214Y009647D03*
X012230Y010592D03*
X012269Y010631D03*
X012309Y010671D03*
X012348Y010710D03*
X012506Y010868D03*
X012742Y011104D03*
X012033Y010435D03*
X011994Y010395D03*
X011639Y012206D03*
X011679Y012246D03*
X011797Y012324D03*
X011836Y012364D03*
X013726Y013309D03*
X012466Y014608D03*
X012348Y014726D03*
X012269Y014805D03*
X012112Y014923D03*
X012072Y014962D03*
X011994Y015002D03*
X011954Y015041D03*
X014159Y015986D03*
X015891Y013191D03*
X014986Y011970D03*
X016561Y010946D03*
X017309Y011852D03*
X017506Y012009D03*
X013529Y007049D03*
X011600Y006970D03*
D20*
X012466Y008387D03*
X013411Y007600D03*
X014356Y009135D03*
X016324Y010828D03*
X012348Y013624D03*
X010419Y013978D03*
X011403Y015946D03*
X009120Y008978D03*
X008923Y009017D03*
X008765Y009057D03*
X005183Y003506D03*
X010458Y002167D03*
X010734Y002994D03*
X014041Y002797D03*
X014631Y002639D03*
X015380Y004017D03*
X016561Y002206D03*
X017939Y003348D03*
X018293Y003269D03*
D21*
X018588Y003191D03*
X017368Y003506D03*
X017250Y003545D03*
X016974Y003624D03*
X015517Y003978D03*
X016541Y002167D03*
X011698Y006931D03*
X013509Y007639D03*
X014966Y008939D03*
X015557Y008781D03*
X016069Y009254D03*
X016738Y008820D03*
X013706Y009332D03*
X011069Y011931D03*
X010950Y011891D03*
X010793Y011852D03*
X009691Y011852D03*
X008903Y010080D03*
X008509Y009135D03*
X007486Y009647D03*
X004257Y013545D03*
X007683Y015946D03*
X009415Y014411D03*
X009415Y014135D03*
X010832Y014332D03*
X010832Y014372D03*
X010832Y014411D03*
X010832Y014450D03*
X010832Y014490D03*
X011344Y013781D03*
X011265Y015356D03*
X011147Y015395D03*
X013549Y013387D03*
X018037Y013466D03*
X010399Y002876D03*
X009887Y002403D03*
X006895Y002403D03*
X006817Y002364D03*
X006620Y002285D03*
X006305Y003742D03*
X004257Y003466D03*
D22*
X004139Y003072D03*
X002683Y003663D03*
X000911Y003348D03*
X005793Y007600D03*
X005950Y007482D03*
X007368Y009490D03*
X007328Y009687D03*
X007289Y009726D03*
X007210Y009765D03*
X007092Y009844D03*
X006974Y009923D03*
X006856Y010002D03*
X007683Y009529D03*
X007722Y009490D03*
X007801Y009450D03*
X007880Y009411D03*
X007919Y009372D03*
X008234Y009214D03*
X008313Y009175D03*
X008588Y010198D03*
X008431Y010277D03*
X008313Y010317D03*
X008273Y010356D03*
X008194Y010395D03*
X008116Y010435D03*
X009139Y012049D03*
X009218Y012009D03*
X009297Y011970D03*
X009376Y011931D03*
X008943Y012167D03*
X007919Y013939D03*
X007998Y013978D03*
X008076Y014017D03*
X007604Y015868D03*
X005832Y012757D03*
X005163Y012482D03*
X005439Y011143D03*
X005045Y010868D03*
X004927Y010789D03*
X004848Y010750D03*
X004730Y010671D03*
X004612Y010592D03*
X004454Y010474D03*
X004336Y010395D03*
X004297Y010356D03*
X003824Y010671D03*
X003785Y010710D03*
X003470Y010907D03*
X003155Y011143D03*
X003155Y013387D03*
X003234Y013427D03*
X003273Y013466D03*
X010832Y014254D03*
X010832Y014569D03*
X011580Y015238D03*
X011817Y015120D03*
X013667Y013348D03*
X015045Y011931D03*
X015084Y011891D03*
X015832Y011498D03*
X017171Y011773D03*
X015832Y009135D03*
X016935Y008742D03*
X016777Y006773D03*
X015911Y006694D03*
X015399Y006734D03*
X014927Y006891D03*
X013352Y008545D03*
X011935Y010356D03*
X011856Y010317D03*
X011777Y010277D03*
X011698Y010238D03*
X012092Y010474D03*
X012722Y011065D03*
X011738Y012285D03*
X011580Y012167D03*
X011502Y012128D03*
X013943Y003230D03*
X013903Y003191D03*
X013824Y003151D03*
X013746Y003072D03*
X009887Y002600D03*
X007328Y002679D03*
X007289Y002718D03*
X006462Y002206D03*
X019179Y002994D03*
X019966Y002561D03*
D23*
X018135Y003309D03*
X016128Y003820D03*
X014828Y002600D03*
X010498Y002915D03*
X009789Y002443D03*
X010340Y002206D03*
X011639Y008230D03*
X011718Y009529D03*
X011876Y009569D03*
X012387Y009687D03*
X012781Y009765D03*
X011128Y010041D03*
X009317Y009962D03*
X009198Y010002D03*
X009041Y010041D03*
X008608Y009096D03*
X010340Y012797D03*
X009435Y014175D03*
X009435Y014332D03*
X009435Y014372D03*
X005655Y012836D03*
X013450Y013427D03*
X014317Y013387D03*
X014395Y013072D03*
X015419Y011734D03*
X015537Y011694D03*
X016718Y011498D03*
X017584Y013151D03*
X017742Y013191D03*
X016128Y009017D03*
X015222Y008860D03*
X015104Y008899D03*
X014868Y008978D03*
X014750Y009017D03*
X014631Y009057D03*
D24*
X015813Y008860D03*
X015025Y006852D03*
X016009Y006655D03*
X015694Y003939D03*
X015813Y003899D03*
X017112Y003584D03*
X017506Y003466D03*
X017624Y003427D03*
X020143Y002482D03*
X012820Y006891D03*
X012269Y006852D03*
X011403Y009135D03*
X011246Y009096D03*
X012033Y009608D03*
X011443Y010120D03*
X011167Y011970D03*
X010852Y014293D03*
X011403Y015317D03*
X011443Y015986D03*
X005655Y012876D03*
X005458Y012757D03*
X004356Y013506D03*
X003450Y013545D03*
X004159Y010317D03*
X004159Y010277D03*
X007545Y009569D03*
X004750Y003348D03*
X004671Y003309D03*
X004317Y003151D03*
X006718Y002324D03*
X007033Y002443D03*
X009986Y002364D03*
X010222Y002246D03*
X010222Y002797D03*
X010301Y002836D03*
X018017Y013269D03*
X017860Y015946D03*
D25*
X017742Y015789D03*
X018135Y015671D03*
X018175Y015553D03*
X018175Y015513D03*
X018175Y015474D03*
X018175Y015435D03*
X018175Y015395D03*
X018214Y015356D03*
X018214Y015238D03*
X018214Y015198D03*
X018214Y015159D03*
X018214Y015080D03*
X018254Y015041D03*
X018254Y015002D03*
X018254Y014962D03*
X018254Y014923D03*
X018254Y014883D03*
X018254Y014844D03*
X018293Y014805D03*
X018293Y014765D03*
X018293Y014726D03*
X018293Y014687D03*
X018293Y014647D03*
X018293Y014608D03*
X018293Y014569D03*
X018293Y014529D03*
X018293Y014490D03*
X018293Y014450D03*
X018293Y014372D03*
X018254Y014332D03*
X018254Y014293D03*
X018254Y014175D03*
X018254Y014135D03*
X018254Y014057D03*
X018254Y013978D03*
X018254Y013939D03*
X018254Y013899D03*
X018254Y013860D03*
X018214Y013702D03*
X018214Y013663D03*
X018214Y013624D03*
X018214Y013584D03*
X018214Y013545D03*
X018175Y013506D03*
X018096Y013191D03*
X018096Y013151D03*
X018096Y013112D03*
X018057Y013072D03*
X018057Y013033D03*
X018057Y012994D03*
X018017Y012954D03*
X018017Y012915D03*
X018017Y012876D03*
X017978Y012836D03*
X017978Y012797D03*
X017939Y012718D03*
X017939Y012679D03*
X017899Y012600D03*
X017860Y012521D03*
X017820Y012443D03*
X017820Y012403D03*
X017781Y012364D03*
X017702Y012246D03*
X016954Y011616D03*
X016797Y011419D03*
X016797Y011380D03*
X016797Y011301D03*
X016797Y011261D03*
X016797Y011222D03*
X016757Y011183D03*
X016757Y011143D03*
X016718Y011104D03*
X016718Y011065D03*
X016521Y010750D03*
X016521Y010631D03*
X016521Y010592D03*
X016521Y010553D03*
X016521Y010474D03*
X016521Y010435D03*
X016521Y010395D03*
X016521Y010277D03*
X016521Y010198D03*
X016521Y010080D03*
X016521Y010002D03*
X016561Y009962D03*
X016561Y009883D03*
X016561Y009765D03*
X016561Y009687D03*
X016561Y009647D03*
X016561Y009569D03*
X016561Y009529D03*
X016561Y009490D03*
X016561Y009450D03*
X016561Y009372D03*
X016561Y009332D03*
X016600Y009293D03*
X016561Y009254D03*
X016561Y009096D03*
X016600Y009057D03*
X016600Y009017D03*
X016206Y009057D03*
X016206Y009135D03*
X016206Y009332D03*
X016246Y009372D03*
X016206Y009411D03*
X016206Y009569D03*
X016206Y009726D03*
X016206Y009805D03*
X016206Y009923D03*
X016206Y010002D03*
X016206Y010120D03*
X016206Y010198D03*
X016206Y010238D03*
X016206Y010317D03*
X016206Y010395D03*
X016206Y010474D03*
X016206Y010513D03*
X016206Y010553D03*
X016206Y010631D03*
X016206Y010710D03*
X016206Y010750D03*
X016206Y010789D03*
X015852Y011104D03*
X015852Y011143D03*
X015813Y011183D03*
X015813Y011222D03*
X015813Y011261D03*
X015734Y011537D03*
X015734Y011576D03*
X015537Y011773D03*
X015458Y011931D03*
X015458Y011970D03*
X015380Y012167D03*
X014631Y012324D03*
X014513Y012482D03*
X014474Y012561D03*
X014435Y012639D03*
X014395Y012679D03*
X014395Y012718D03*
X014395Y012757D03*
X014356Y012797D03*
X014356Y012836D03*
X014317Y012876D03*
X014317Y012915D03*
X014317Y012954D03*
X014277Y012994D03*
X014277Y013033D03*
X014238Y013151D03*
X014198Y013191D03*
X014159Y013427D03*
X014120Y013506D03*
X014120Y013545D03*
X014120Y013584D03*
X014120Y013624D03*
X014080Y013663D03*
X014080Y013702D03*
X014080Y013742D03*
X014080Y013781D03*
X014080Y013820D03*
X014080Y013860D03*
X014041Y013899D03*
X014041Y013939D03*
X014041Y013978D03*
X014041Y014017D03*
X014041Y014057D03*
X014041Y014096D03*
X014041Y014135D03*
X014002Y014372D03*
X014002Y014450D03*
X014002Y014490D03*
X014002Y014529D03*
X014002Y014569D03*
X014002Y014608D03*
X014002Y014647D03*
X014002Y014687D03*
X014002Y014726D03*
X014002Y014765D03*
X014002Y014805D03*
X014002Y014844D03*
X014002Y014883D03*
X014002Y014962D03*
X014002Y015002D03*
X014002Y015041D03*
X014002Y015080D03*
X014041Y015120D03*
X014002Y015159D03*
X014041Y015198D03*
X014002Y015238D03*
X014041Y015277D03*
X014041Y015356D03*
X014041Y015474D03*
X014041Y015553D03*
X014041Y015592D03*
X014041Y015631D03*
X014080Y015710D03*
X014080Y015789D03*
X014080Y015828D03*
X014080Y015868D03*
X014317Y015868D03*
X014553Y015710D03*
X014317Y015513D03*
X015065Y015710D03*
X015261Y015592D03*
X015222Y015277D03*
X015222Y015159D03*
X015183Y014647D03*
X015183Y014529D03*
X016561Y015002D03*
X016561Y015080D03*
X016561Y015277D03*
X016561Y015395D03*
X016600Y015671D03*
X017033Y015198D03*
X016994Y014687D03*
X016994Y014608D03*
X017702Y014805D03*
X017742Y014647D03*
X017742Y014529D03*
X017702Y015041D03*
X017702Y015159D03*
X016718Y013230D03*
X016482Y013309D03*
X016285Y011852D03*
X016246Y011734D03*
X015694Y008978D03*
X015340Y008387D03*
X015301Y008309D03*
X015301Y008269D03*
X015261Y008230D03*
X015261Y008151D03*
X015261Y008112D03*
X015261Y008072D03*
X015222Y007994D03*
X015222Y007954D03*
X015222Y007915D03*
X015222Y007876D03*
X015222Y007836D03*
X015222Y007797D03*
X015222Y007757D03*
X015222Y007718D03*
X015222Y007639D03*
X015222Y007600D03*
X015222Y007561D03*
X015261Y007482D03*
X015261Y007443D03*
X015261Y007403D03*
X015301Y007364D03*
X015301Y007324D03*
X015301Y007285D03*
X015340Y007246D03*
X015380Y007167D03*
X015419Y007088D03*
X014868Y007009D03*
X014828Y007088D03*
X014828Y007128D03*
X014828Y007167D03*
X014828Y007206D03*
X014789Y007246D03*
X014789Y007285D03*
X014789Y007324D03*
X014750Y007364D03*
X014750Y007443D03*
X014750Y007482D03*
X014750Y007521D03*
X014710Y007561D03*
X014671Y007639D03*
X014631Y007757D03*
X014592Y007836D03*
X014553Y007915D03*
X014513Y008033D03*
X014474Y008112D03*
X014356Y008309D03*
X014159Y008663D03*
X013529Y008151D03*
X013529Y008112D03*
X013569Y008033D03*
X013569Y007994D03*
X013569Y007954D03*
X013608Y007876D03*
X013608Y007836D03*
X013647Y007797D03*
X013647Y007757D03*
X013490Y007482D03*
X013293Y007285D03*
X013293Y007167D03*
X013293Y007049D03*
X013017Y007088D03*
X013017Y007285D03*
X013017Y007324D03*
X013017Y007443D03*
X012742Y007206D03*
X012742Y007128D03*
X012742Y007049D03*
X012742Y006970D03*
X012820Y006852D03*
X012427Y006891D03*
X012151Y006891D03*
X012151Y006931D03*
X012151Y006970D03*
X012191Y007088D03*
X012230Y007285D03*
X012230Y007364D03*
X012427Y007364D03*
X012466Y007246D03*
X011876Y007088D03*
X011679Y007285D03*
X011679Y007324D03*
X011639Y007246D03*
X011639Y007206D03*
X011600Y007128D03*
X011561Y007049D03*
X011561Y007009D03*
X011482Y007561D03*
X011482Y007639D03*
X011482Y007679D03*
X011482Y007718D03*
X011482Y007757D03*
X011482Y007797D03*
X011482Y007836D03*
X011482Y007876D03*
X011482Y007915D03*
X011482Y007954D03*
X011482Y007994D03*
X011482Y008033D03*
X011482Y008112D03*
X011482Y008151D03*
X011482Y008309D03*
X011482Y008387D03*
X011482Y008466D03*
X011482Y008506D03*
X011482Y008584D03*
X011521Y008781D03*
X011521Y008860D03*
X011521Y008899D03*
X011521Y008939D03*
X011521Y008978D03*
X011521Y009057D03*
X011521Y009096D03*
X011521Y009254D03*
X011521Y009332D03*
X011561Y009569D03*
X011561Y009608D03*
X011561Y009647D03*
X011561Y009687D03*
X011561Y009726D03*
X011561Y009805D03*
X011561Y009883D03*
X011561Y009923D03*
X011561Y009962D03*
X011561Y010002D03*
X011561Y010041D03*
X011561Y010080D03*
X012427Y010789D03*
X012624Y011025D03*
X012820Y011025D03*
X012820Y010986D03*
X012820Y010946D03*
X012860Y010907D03*
X012860Y010868D03*
X012860Y010828D03*
X012899Y010710D03*
X012899Y010671D03*
X012939Y010553D03*
X012939Y010513D03*
X012939Y010474D03*
X012978Y010395D03*
X012978Y010356D03*
X013017Y010238D03*
X013057Y010120D03*
X013057Y010080D03*
X013096Y009923D03*
X013096Y009883D03*
X013175Y009726D03*
X013214Y009490D03*
X013214Y009450D03*
X013214Y009411D03*
X013254Y009372D03*
X013254Y009293D03*
X013254Y009254D03*
X013293Y009135D03*
X013332Y008978D03*
X013332Y008939D03*
X013372Y008860D03*
X013372Y008820D03*
X013372Y008781D03*
X013411Y008702D03*
X013411Y008663D03*
X013411Y008624D03*
X013411Y008584D03*
X013450Y008466D03*
X013490Y008348D03*
X013490Y008309D03*
X013490Y008230D03*
X013569Y007206D03*
X013569Y007128D03*
X014907Y006773D03*
X014907Y006734D03*
X014907Y006655D03*
X014946Y006616D03*
X014946Y006576D03*
X014946Y006537D03*
X014946Y006498D03*
X014946Y006458D03*
X014946Y006419D03*
X014986Y006340D03*
X014946Y006301D03*
X014986Y006261D03*
X014946Y006222D03*
X014986Y006143D03*
X014986Y006065D03*
X014986Y006025D03*
X014986Y005946D03*
X014986Y005907D03*
X014986Y005868D03*
X014986Y005828D03*
X014986Y005789D03*
X014986Y005750D03*
X014986Y005710D03*
X014986Y005671D03*
X014946Y005395D03*
X014946Y005356D03*
X014946Y005317D03*
X014946Y005277D03*
X014946Y005198D03*
X014907Y005080D03*
X014907Y005041D03*
X014907Y005002D03*
X014868Y004844D03*
X014868Y004805D03*
X014828Y004726D03*
X014789Y004608D03*
X014789Y004569D03*
X016285Y004608D03*
X016285Y004687D03*
X016285Y004765D03*
X016285Y004844D03*
X016285Y004923D03*
X016285Y004962D03*
X016285Y005198D03*
X016285Y005395D03*
X016246Y005592D03*
X016246Y005671D03*
X016285Y005710D03*
X016246Y005828D03*
X016246Y005946D03*
X016246Y005986D03*
X016246Y006025D03*
X016246Y006183D03*
X016246Y006261D03*
X016246Y006301D03*
X016246Y006340D03*
X016246Y006380D03*
X016246Y006419D03*
X016246Y006458D03*
X016246Y006498D03*
X016679Y006498D03*
X016679Y006537D03*
X016679Y006616D03*
X016679Y006458D03*
X016679Y006380D03*
X016679Y006340D03*
X016679Y006261D03*
X016718Y006143D03*
X016718Y006065D03*
X016718Y005986D03*
X016718Y005946D03*
X016718Y005907D03*
X016718Y005828D03*
X016718Y005789D03*
X016718Y005750D03*
X016718Y005631D03*
X016757Y005553D03*
X016718Y005513D03*
X016757Y005356D03*
X016757Y005277D03*
X016757Y005198D03*
X016757Y005159D03*
X016757Y005120D03*
X016757Y005080D03*
X016757Y005002D03*
X016757Y004923D03*
X016757Y004844D03*
X016797Y004726D03*
X016757Y004687D03*
X016797Y004529D03*
X016797Y004450D03*
X016797Y004372D03*
X016797Y004254D03*
X016797Y004214D03*
X016797Y004096D03*
X016797Y004057D03*
X016797Y003899D03*
X016836Y003742D03*
X016836Y003702D03*
X016836Y003584D03*
X016836Y003545D03*
X016836Y003506D03*
X016836Y003466D03*
X016836Y003348D03*
X016836Y003309D03*
X016836Y003269D03*
X016836Y003151D03*
X016836Y003112D03*
X016876Y002876D03*
X016876Y002836D03*
X016876Y002757D03*
X016876Y002718D03*
X016876Y002679D03*
X016876Y002639D03*
X016876Y002600D03*
X016876Y002561D03*
X016876Y002521D03*
X016876Y002482D03*
X016876Y002403D03*
X016876Y002364D03*
X016364Y002246D03*
X016324Y002285D03*
X016324Y002364D03*
X016324Y002403D03*
X016324Y002443D03*
X016324Y002482D03*
X016324Y002561D03*
X016285Y002600D03*
X016324Y002639D03*
X016324Y002718D03*
X016324Y002836D03*
X016285Y002994D03*
X016285Y003151D03*
X016324Y003191D03*
X016285Y003269D03*
X016324Y003309D03*
X016285Y003348D03*
X016285Y003427D03*
X016285Y003506D03*
X016285Y003663D03*
X016285Y003742D03*
X016285Y003939D03*
X016285Y004017D03*
X016285Y004057D03*
X016285Y004135D03*
X016285Y004175D03*
X016285Y004254D03*
X016285Y004332D03*
X016285Y004411D03*
X016285Y004490D03*
X016285Y004529D03*
X017033Y006931D03*
X017309Y007403D03*
X017348Y007561D03*
X017387Y007600D03*
X017387Y007679D03*
X017387Y007718D03*
X017387Y007757D03*
X017387Y007797D03*
X017387Y007836D03*
X017387Y007876D03*
X017387Y007915D03*
X017387Y007954D03*
X017348Y008072D03*
X017348Y008112D03*
X017348Y008151D03*
X017309Y008230D03*
X017309Y008269D03*
X017269Y008348D03*
X013135Y012009D03*
X013135Y012049D03*
X013135Y012088D03*
X013175Y012167D03*
X013175Y012206D03*
X013175Y012246D03*
X013175Y012285D03*
X013175Y012324D03*
X013175Y012403D03*
X013214Y012482D03*
X013214Y012561D03*
X013214Y012600D03*
X013214Y012639D03*
X013214Y012679D03*
X013214Y012718D03*
X013214Y012757D03*
X013214Y012797D03*
X013214Y012836D03*
X013214Y012954D03*
X013096Y013624D03*
X013096Y013663D03*
X013096Y013702D03*
X013057Y013742D03*
X013057Y013781D03*
X013057Y013820D03*
X013017Y013899D03*
X013017Y013939D03*
X012978Y013978D03*
X012939Y014017D03*
X012939Y014057D03*
X012899Y014135D03*
X012860Y014175D03*
X012820Y014254D03*
X012742Y014332D03*
X012506Y014569D03*
X012427Y014647D03*
X012387Y013191D03*
X012387Y013151D03*
X011876Y012403D03*
X011364Y012954D03*
X010813Y013663D03*
X010813Y013742D03*
X010813Y013781D03*
X010813Y013820D03*
X010143Y013820D03*
X010143Y013860D03*
X010104Y013781D03*
X010104Y013702D03*
X010065Y013663D03*
X010065Y013624D03*
X010065Y013584D03*
X010025Y013506D03*
X010025Y013466D03*
X010025Y013427D03*
X010025Y013387D03*
X010025Y013348D03*
X010025Y013309D03*
X010065Y013191D03*
X010065Y013112D03*
X010065Y013033D03*
X008765Y012285D03*
X008372Y012639D03*
X008332Y012679D03*
X008293Y012718D03*
X008254Y012757D03*
X008254Y012797D03*
X008214Y012836D03*
X008175Y012915D03*
X008135Y012954D03*
X008135Y012994D03*
X008096Y013033D03*
X008057Y013072D03*
X008057Y013112D03*
X008057Y013151D03*
X008017Y013191D03*
X007978Y013269D03*
X007978Y013309D03*
X007939Y013427D03*
X007899Y013506D03*
X007899Y013584D03*
X007860Y013702D03*
X007860Y013742D03*
X007860Y013781D03*
X007584Y013663D03*
X007545Y013624D03*
X006954Y013820D03*
X006954Y013860D03*
X006994Y013939D03*
X006994Y013978D03*
X007033Y014057D03*
X007072Y014096D03*
X007112Y014175D03*
X007151Y014214D03*
X007151Y014254D03*
X007191Y014293D03*
X007230Y014372D03*
X007269Y014411D03*
X007309Y014450D03*
X007309Y014490D03*
X006915Y013781D03*
X006915Y013742D03*
X006915Y013702D03*
X006876Y013624D03*
X006876Y013584D03*
X006876Y013545D03*
X006836Y013506D03*
X006836Y013466D03*
X006836Y013427D03*
X006797Y013348D03*
X006797Y013309D03*
X006797Y013269D03*
X006797Y013230D03*
X006757Y013072D03*
X006757Y013033D03*
X006757Y012994D03*
X006757Y012954D03*
X006757Y012876D03*
X006757Y012718D03*
X006757Y012600D03*
X006757Y012561D03*
X006757Y012521D03*
X006757Y012482D03*
X006797Y012364D03*
X006797Y012285D03*
X006797Y012246D03*
X006836Y012167D03*
X006836Y012128D03*
X006876Y012049D03*
X006876Y012009D03*
X006915Y011970D03*
X006915Y011931D03*
X006954Y011813D03*
X006994Y011773D03*
X006994Y011734D03*
X007033Y011655D03*
X007033Y011616D03*
X007072Y011537D03*
X007112Y011458D03*
X007151Y011380D03*
X007191Y011340D03*
X007230Y011261D03*
X007269Y011222D03*
X007309Y011143D03*
X007348Y011104D03*
X007427Y010986D03*
X007506Y010907D03*
X007545Y010868D03*
X007545Y010671D03*
X007545Y010631D03*
X007545Y010592D03*
X007545Y010553D03*
X007545Y010474D03*
X007545Y010435D03*
X007545Y010395D03*
X007545Y010356D03*
X007545Y010317D03*
X007545Y010277D03*
X007545Y010238D03*
X007545Y010159D03*
X007545Y010080D03*
X007545Y010041D03*
X007584Y010002D03*
X007545Y009962D03*
X007584Y009923D03*
X007584Y009883D03*
X007584Y009844D03*
X007584Y009805D03*
X007584Y009765D03*
X007584Y009726D03*
X007584Y009687D03*
X006876Y009017D03*
X006797Y008939D03*
X006639Y008742D03*
X006600Y008702D03*
X006521Y008584D03*
X006482Y008545D03*
X006443Y008506D03*
X006443Y008466D03*
X006403Y008427D03*
X006364Y008387D03*
X006364Y008348D03*
X006324Y008309D03*
X006285Y008230D03*
X006246Y008151D03*
X006167Y007994D03*
X006128Y007915D03*
X006088Y007876D03*
X006088Y007836D03*
X006088Y007797D03*
X006049Y007757D03*
X006049Y007718D03*
X006049Y007679D03*
X006049Y007639D03*
X006009Y007600D03*
X005970Y007403D03*
X005970Y007364D03*
X005931Y007324D03*
X005931Y007246D03*
X005931Y007206D03*
X005891Y007128D03*
X005891Y007049D03*
X005891Y007009D03*
X005852Y006891D03*
X005852Y006813D03*
X005813Y006694D03*
X005813Y006655D03*
X005813Y006576D03*
X005813Y006498D03*
X005813Y006419D03*
X005813Y006380D03*
X005813Y006301D03*
X005813Y006261D03*
X005813Y006222D03*
X005813Y006183D03*
X005813Y006143D03*
X005813Y006104D03*
X005852Y005986D03*
X005852Y005946D03*
X005852Y005868D03*
X005852Y005828D03*
X005852Y005789D03*
X005852Y005750D03*
X005852Y005710D03*
X005852Y005671D03*
X005852Y005631D03*
X005891Y005592D03*
X005891Y005553D03*
X005891Y005513D03*
X005891Y005474D03*
X005891Y005435D03*
X005891Y005395D03*
X005931Y005356D03*
X005891Y005317D03*
X005931Y005277D03*
X005931Y005238D03*
X005931Y005198D03*
X005931Y005159D03*
X005970Y005041D03*
X005970Y005002D03*
X005970Y004962D03*
X006009Y004883D03*
X006009Y004844D03*
X006009Y004805D03*
X006049Y004687D03*
X006049Y004647D03*
X006088Y004608D03*
X006088Y004569D03*
X006088Y004529D03*
X006128Y004450D03*
X006167Y004332D03*
X006206Y004214D03*
X006246Y004135D03*
X006285Y004057D03*
X006364Y003860D03*
X006403Y003781D03*
X006521Y003545D03*
X006009Y003742D03*
X002387Y003584D03*
X002348Y003663D03*
X002230Y003584D03*
X000694Y003151D03*
X004946Y008663D03*
X004907Y008742D03*
X004828Y008899D03*
X004789Y008978D03*
X004750Y009057D03*
X004671Y009214D03*
X004631Y009293D03*
X004592Y009372D03*
X004553Y009450D03*
X004553Y009490D03*
X004513Y009569D03*
X004513Y009608D03*
X004474Y009687D03*
X004435Y009765D03*
X004435Y009805D03*
X004395Y009844D03*
X004395Y009883D03*
X004356Y010002D03*
X004356Y010041D03*
X004317Y010120D03*
X005694Y011183D03*
X005734Y011143D03*
X005852Y010986D03*
X006049Y010750D03*
X005734Y011419D03*
X005931Y012206D03*
X005970Y012246D03*
X005970Y012285D03*
X006009Y012403D03*
X006009Y012443D03*
X006009Y012482D03*
X005970Y012561D03*
X005970Y012600D03*
X005694Y012915D03*
X005065Y012561D03*
X005025Y012639D03*
X004946Y012836D03*
X005143Y012324D03*
X005143Y012285D03*
X005143Y012246D03*
X003805Y013702D03*
X002624Y012600D03*
X002624Y012246D03*
X002742Y011773D03*
X007663Y015553D03*
X007663Y015592D03*
X007624Y015631D03*
X007624Y015671D03*
X007624Y015710D03*
X007584Y015789D03*
X007584Y015828D03*
X007702Y015513D03*
X007702Y015474D03*
X007702Y015435D03*
X007742Y015395D03*
X007742Y015356D03*
X008135Y014057D03*
X010458Y015828D03*
X010458Y015868D03*
X010419Y016025D03*
X010458Y016065D03*
X010419Y016143D03*
X010419Y016183D03*
X010419Y016261D03*
X010419Y016301D03*
X010419Y016380D03*
X013096Y011931D03*
X013096Y011891D03*
X013096Y011852D03*
X013057Y011813D03*
X013057Y011773D03*
X013057Y011734D03*
X013017Y011655D03*
X012978Y011616D03*
X012978Y011537D03*
X012939Y011498D03*
X012939Y011458D03*
X012899Y011419D03*
X012860Y011340D03*
X012820Y011301D03*
X012820Y011261D03*
X012781Y011183D03*
X010222Y009450D03*
X010183Y009411D03*
X010222Y009372D03*
X010222Y009332D03*
X010222Y009293D03*
X010222Y009254D03*
X010261Y009096D03*
X010261Y009057D03*
X010261Y009017D03*
X010183Y009569D03*
X010183Y009608D03*
X010183Y009647D03*
X010183Y009687D03*
X010183Y009726D03*
X010183Y009805D03*
X008608Y009805D03*
X008608Y009844D03*
X008608Y009883D03*
X008608Y009923D03*
X008608Y009962D03*
X008608Y010002D03*
X008608Y010041D03*
X008608Y010080D03*
X008608Y009726D03*
X008608Y009687D03*
X008608Y009569D03*
X008608Y009411D03*
X008647Y009372D03*
X008647Y009332D03*
X008647Y009254D03*
X008647Y009214D03*
X008647Y009175D03*
D26*
X008490Y010238D03*
X007624Y010750D03*
X007033Y009883D03*
X007151Y009805D03*
X007506Y009608D03*
X005655Y011301D03*
X005143Y012521D03*
X004474Y013427D03*
X004435Y013466D03*
X003411Y010946D03*
X003529Y010868D03*
X003569Y010828D03*
X003647Y010789D03*
X003726Y010750D03*
X005931Y007521D03*
X001915Y003663D03*
X001206Y003506D03*
X000773Y003269D03*
X004513Y003230D03*
X004592Y003269D03*
X008490Y002757D03*
X009946Y002639D03*
X010025Y002679D03*
X010065Y002718D03*
X010143Y002757D03*
X013687Y003033D03*
X013765Y003112D03*
X016206Y003781D03*
X016718Y002246D03*
X018883Y003112D03*
X019080Y003033D03*
X019592Y002757D03*
X019750Y002679D03*
X019828Y002639D03*
X020025Y002521D03*
X020183Y002443D03*
X016718Y006734D03*
X016639Y006694D03*
X015852Y006734D03*
X015616Y006852D03*
X013411Y007009D03*
X013372Y006970D03*
X012269Y006813D03*
X011757Y006891D03*
X011443Y009175D03*
X011639Y009490D03*
X011600Y010198D03*
X013057Y009844D03*
X013254Y009608D03*
X015183Y011852D03*
X016049Y010946D03*
X016836Y011537D03*
X017269Y011813D03*
X011757Y015159D03*
X011482Y016025D03*
X010183Y012876D03*
X009513Y011891D03*
X011246Y012009D03*
X011364Y012049D03*
X011482Y012088D03*
X010104Y009844D03*
X007781Y013820D03*
X007506Y014647D03*
D27*
X007407Y014569D03*
X007368Y014529D03*
X007210Y014332D03*
X007683Y013781D03*
X007643Y013742D03*
X007604Y013702D03*
X007801Y013860D03*
X007840Y013899D03*
X008391Y012600D03*
X008431Y012561D03*
X008470Y012521D03*
X008509Y012482D03*
X008549Y012443D03*
X008667Y012364D03*
X008706Y012324D03*
X008824Y012246D03*
X009021Y012128D03*
X010084Y012915D03*
X010084Y012954D03*
X010045Y012994D03*
X010045Y013072D03*
X010045Y013151D03*
X010045Y013230D03*
X010045Y013269D03*
X010045Y013545D03*
X010202Y013899D03*
X010832Y014214D03*
X011659Y013781D03*
X012407Y014687D03*
X012328Y014765D03*
X012210Y014844D03*
X012171Y014883D03*
X011895Y015080D03*
X012565Y014529D03*
X012604Y014490D03*
X012643Y014450D03*
X012683Y014411D03*
X012722Y014372D03*
X012761Y014293D03*
X012840Y014214D03*
X012919Y014096D03*
X013194Y013033D03*
X013194Y012915D03*
X014139Y013466D03*
X014257Y013112D03*
X014454Y012600D03*
X014494Y012521D03*
X014533Y012443D03*
X014572Y012403D03*
X014612Y012364D03*
X014651Y012285D03*
X014691Y012246D03*
X014730Y012206D03*
X014769Y012167D03*
X014809Y012128D03*
X014848Y012088D03*
X014887Y012049D03*
X014927Y012009D03*
X015872Y011065D03*
X015911Y011025D03*
X015950Y010986D03*
X016659Y010986D03*
X016698Y011025D03*
X016935Y011576D03*
X017368Y011891D03*
X017407Y011931D03*
X017446Y011970D03*
X017525Y012049D03*
X017565Y012088D03*
X017604Y012128D03*
X017643Y012167D03*
X017683Y012206D03*
X017722Y012285D03*
X017761Y012324D03*
X017840Y012482D03*
X017880Y012561D03*
X017919Y012639D03*
X017958Y012757D03*
X018116Y013309D03*
X018155Y013348D03*
X018155Y013387D03*
X018234Y013820D03*
X018234Y015120D03*
X018194Y015277D03*
X018155Y015592D03*
X018155Y015710D03*
X018155Y015750D03*
X018155Y015789D03*
X018116Y015828D03*
X016580Y015553D03*
X015714Y015750D03*
X014061Y015750D03*
X014021Y014411D03*
X014021Y014293D03*
X014021Y014214D03*
X012998Y011576D03*
X012880Y011380D03*
X012801Y011222D03*
X012761Y011143D03*
X012604Y010986D03*
X012565Y010946D03*
X012525Y010907D03*
X012446Y010828D03*
X012407Y010750D03*
X012171Y010553D03*
X012131Y010513D03*
X011541Y009450D03*
X011502Y009214D03*
X011502Y008191D03*
X011462Y007443D03*
X012761Y006931D03*
X012958Y006931D03*
X013352Y006931D03*
X013667Y007718D03*
X014336Y008348D03*
X014297Y008387D03*
X014297Y008427D03*
X014257Y008466D03*
X014257Y008506D03*
X014218Y008545D03*
X014218Y008584D03*
X014179Y008624D03*
X014139Y008702D03*
X014100Y008781D03*
X014061Y008820D03*
X014021Y008860D03*
X014021Y008899D03*
X013982Y008939D03*
X013943Y008978D03*
X013903Y009017D03*
X013864Y009057D03*
X013785Y009135D03*
X013746Y009214D03*
X013431Y009490D03*
X013194Y009687D03*
X014376Y008269D03*
X014415Y008230D03*
X014415Y008191D03*
X014454Y008151D03*
X014494Y008072D03*
X014533Y007994D03*
X014533Y007954D03*
X014572Y007876D03*
X014612Y007797D03*
X014651Y007718D03*
X014651Y007679D03*
X014691Y007600D03*
X014769Y007403D03*
X014848Y007049D03*
X014848Y006970D03*
X014887Y006931D03*
X014927Y006694D03*
X015399Y007128D03*
X015360Y007206D03*
X015439Y007049D03*
X015478Y007009D03*
X015596Y006891D03*
X015242Y007521D03*
X015242Y007679D03*
X015242Y008033D03*
X015281Y008191D03*
X015320Y008348D03*
X015360Y008427D03*
X015360Y008466D03*
X015399Y008506D03*
X015439Y008545D03*
X015478Y008584D03*
X015714Y009017D03*
X015714Y009057D03*
X015754Y009096D03*
X016226Y009096D03*
X016226Y009608D03*
X017131Y008545D03*
X017171Y008506D03*
X017210Y008466D03*
X017210Y008427D03*
X017250Y008387D03*
X017289Y008309D03*
X017328Y008191D03*
X017368Y008033D03*
X017368Y007994D03*
X017368Y007639D03*
X017368Y007521D03*
X017328Y007482D03*
X017328Y007443D03*
X017289Y007364D03*
X017289Y007324D03*
X017250Y007285D03*
X017250Y007246D03*
X017210Y007206D03*
X017210Y007167D03*
X017171Y007128D03*
X017171Y007088D03*
X017131Y007049D03*
X017131Y007009D03*
X016974Y006891D03*
X016895Y006852D03*
X016856Y006813D03*
X016698Y006576D03*
X016265Y006222D03*
X016265Y006143D03*
X016265Y006104D03*
X016265Y005907D03*
X016265Y005868D03*
X016265Y005750D03*
X016265Y005513D03*
X016265Y005435D03*
X016265Y005317D03*
X016265Y005159D03*
X016265Y005080D03*
X016817Y003978D03*
X016856Y002954D03*
X016305Y002915D03*
X016305Y002757D03*
X016305Y002324D03*
X014572Y004017D03*
X014572Y004057D03*
X014533Y003978D03*
X014494Y003939D03*
X014494Y003899D03*
X014454Y003860D03*
X014415Y003781D03*
X014376Y003742D03*
X014297Y003624D03*
X014612Y004175D03*
X014651Y004214D03*
X014651Y004254D03*
X014691Y004293D03*
X014691Y004332D03*
X014691Y004372D03*
X014730Y004411D03*
X014730Y004450D03*
X014730Y004490D03*
X014769Y004529D03*
X014809Y004647D03*
X014809Y004687D03*
X014848Y004765D03*
X014887Y004883D03*
X014887Y004923D03*
X014887Y004962D03*
X014927Y005120D03*
X014927Y005238D03*
X014966Y005435D03*
X014966Y005513D03*
X014966Y005631D03*
X014966Y005986D03*
X014966Y006183D03*
X019297Y002915D03*
X019376Y002876D03*
X019454Y002797D03*
X010242Y011734D03*
X008628Y009647D03*
X008628Y009450D03*
X007998Y010513D03*
X007801Y010631D03*
X007525Y010513D03*
X007565Y010120D03*
X007210Y009372D03*
X007171Y009332D03*
X007131Y009293D03*
X007092Y009254D03*
X007053Y009214D03*
X007013Y009175D03*
X006974Y009135D03*
X006935Y009096D03*
X006895Y009057D03*
X006777Y008899D03*
X006738Y008860D03*
X006698Y008820D03*
X006580Y008663D03*
X006541Y008624D03*
X006305Y008269D03*
X006265Y008191D03*
X006226Y008112D03*
X006187Y008072D03*
X006187Y008033D03*
X006147Y007954D03*
X005557Y007836D03*
X005517Y007876D03*
X005478Y007915D03*
X005439Y007954D03*
X005399Y007994D03*
X005360Y008072D03*
X005320Y008112D03*
X005281Y008151D03*
X005242Y008191D03*
X005242Y008230D03*
X005202Y008269D03*
X005163Y008309D03*
X005163Y008348D03*
X005124Y008387D03*
X005084Y008427D03*
X005045Y008466D03*
X005045Y008506D03*
X005006Y008545D03*
X005006Y008584D03*
X004966Y008624D03*
X004927Y008702D03*
X004887Y008781D03*
X004887Y008820D03*
X004848Y008860D03*
X004809Y008939D03*
X004769Y009017D03*
X004730Y009096D03*
X004691Y009135D03*
X004691Y009175D03*
X004651Y009254D03*
X004612Y009332D03*
X004572Y009411D03*
X004533Y009529D03*
X004494Y009647D03*
X004454Y009726D03*
X004376Y009923D03*
X004376Y009962D03*
X004336Y010080D03*
X004297Y010159D03*
X004297Y010198D03*
X004100Y010198D03*
X004021Y010356D03*
X004021Y010395D03*
X003982Y010435D03*
X003943Y010513D03*
X003903Y010592D03*
X003864Y010631D03*
X003076Y011222D03*
X002998Y011301D03*
X002958Y011380D03*
X002919Y011419D03*
X002880Y011498D03*
X002840Y011537D03*
X002801Y011616D03*
X002801Y011655D03*
X002761Y011694D03*
X002761Y011734D03*
X002722Y011813D03*
X002722Y011852D03*
X002683Y011891D03*
X002683Y011931D03*
X002683Y011970D03*
X002643Y012009D03*
X002643Y012049D03*
X002643Y012088D03*
X002643Y012128D03*
X002604Y012167D03*
X002604Y012206D03*
X002604Y012285D03*
X002604Y012324D03*
X002604Y012364D03*
X002604Y012403D03*
X002604Y012443D03*
X002604Y012482D03*
X002604Y012521D03*
X002604Y012561D03*
X002643Y012639D03*
X002643Y012679D03*
X002643Y012718D03*
X002643Y012757D03*
X002683Y012797D03*
X002683Y012836D03*
X002722Y012915D03*
X002761Y012954D03*
X002761Y012994D03*
X002801Y013033D03*
X002840Y013072D03*
X004691Y013230D03*
X004730Y013191D03*
X004769Y013151D03*
X004809Y013112D03*
X004809Y013072D03*
X004848Y013033D03*
X004887Y012954D03*
X004927Y012876D03*
X004966Y012797D03*
X005006Y012757D03*
X005006Y012718D03*
X005006Y012679D03*
X005045Y012600D03*
X005242Y012561D03*
X005281Y012600D03*
X005281Y012639D03*
X005360Y012718D03*
X005163Y012403D03*
X005163Y012364D03*
X005714Y011931D03*
X005754Y011970D03*
X005832Y012049D03*
X005911Y012128D03*
X005911Y012167D03*
X005990Y012324D03*
X005990Y012364D03*
X005990Y012521D03*
X005950Y012639D03*
X005911Y012679D03*
X005596Y011813D03*
X005557Y011773D03*
X005517Y011734D03*
X005557Y011694D03*
X005557Y011655D03*
X005596Y011616D03*
X005635Y011576D03*
X005635Y011537D03*
X005675Y011498D03*
X005714Y011458D03*
X005714Y011380D03*
X005714Y011340D03*
X005754Y011104D03*
X005793Y011065D03*
X005832Y011025D03*
X005911Y010907D03*
X005950Y010868D03*
X005990Y010828D03*
X006029Y010789D03*
X006108Y010710D03*
X006108Y010671D03*
X006187Y010592D03*
X006226Y010553D03*
X006265Y010513D03*
X006344Y010435D03*
X006423Y010356D03*
X006502Y010277D03*
X006541Y010238D03*
X006620Y010198D03*
X006659Y010159D03*
X007446Y010946D03*
X007407Y011025D03*
X007368Y011065D03*
X007289Y011183D03*
X007210Y011301D03*
X007131Y011419D03*
X007092Y011498D03*
X007053Y011576D03*
X009415Y014057D03*
X007761Y015277D03*
X007761Y015317D03*
X007604Y015750D03*
X010360Y016419D03*
X010439Y015946D03*
X005911Y007088D03*
X005872Y006970D03*
X005872Y006931D03*
X005872Y006852D03*
X005832Y006773D03*
X005832Y006734D03*
X005832Y006616D03*
X005832Y006537D03*
X005832Y006458D03*
X005832Y006340D03*
X005832Y006065D03*
X005832Y006025D03*
X005950Y005120D03*
X005950Y005080D03*
X005990Y004923D03*
X006029Y004765D03*
X006108Y004490D03*
X006147Y004411D03*
X006147Y004372D03*
X006187Y004293D03*
X006187Y004254D03*
X006226Y004175D03*
X006265Y004096D03*
X006305Y004017D03*
X006305Y003978D03*
X006344Y003939D03*
X006344Y003899D03*
X006383Y003820D03*
X006502Y003584D03*
X006541Y003506D03*
X006580Y003466D03*
X006620Y003427D03*
X006620Y003387D03*
X006659Y003348D03*
X006659Y003309D03*
X006738Y003230D03*
X006777Y003191D03*
X006817Y003151D03*
X006895Y003072D03*
X002171Y003663D03*
X000714Y003191D03*
D28*
X000675Y003112D03*
X001423Y003506D03*
X001935Y003584D03*
X002486Y003663D03*
X002683Y003584D03*
X003076Y003545D03*
X003706Y003466D03*
X003824Y003466D03*
X003943Y002954D03*
X006029Y004726D03*
X005911Y007167D03*
X005950Y007285D03*
X008628Y009293D03*
X008628Y009490D03*
X008628Y009529D03*
X008628Y009608D03*
X008628Y009765D03*
X007565Y010198D03*
X007013Y011694D03*
X006935Y011852D03*
X006935Y011891D03*
X006856Y012088D03*
X006817Y012206D03*
X006777Y012324D03*
X006777Y012403D03*
X006777Y012443D03*
X006738Y012639D03*
X006738Y012679D03*
X006738Y012757D03*
X006738Y012797D03*
X006738Y012836D03*
X006738Y012915D03*
X006777Y013112D03*
X006777Y013151D03*
X006777Y013191D03*
X006817Y013387D03*
X006895Y013663D03*
X006974Y013899D03*
X007013Y014017D03*
X007092Y014135D03*
X007880Y013663D03*
X007880Y013624D03*
X007919Y013545D03*
X007919Y013466D03*
X007958Y013387D03*
X007958Y013348D03*
X007998Y013230D03*
X008194Y012876D03*
X010084Y013742D03*
X010360Y014017D03*
X010793Y013702D03*
X010990Y013702D03*
X010990Y013663D03*
X010990Y013742D03*
X010990Y013781D03*
X011108Y013151D03*
X011108Y013112D03*
X011108Y013072D03*
X011108Y013033D03*
X011147Y012994D03*
X011147Y012954D03*
X011187Y012836D03*
X011620Y012876D03*
X011895Y012443D03*
X012407Y013112D03*
X011935Y013466D03*
X011935Y013506D03*
X011935Y013545D03*
X013037Y013860D03*
X013116Y013584D03*
X013194Y013072D03*
X013194Y012994D03*
X013194Y012876D03*
X013194Y012521D03*
X013194Y012443D03*
X013194Y012364D03*
X013155Y012128D03*
X013116Y011970D03*
X013037Y011694D03*
X012880Y010789D03*
X012880Y010750D03*
X012919Y010631D03*
X012919Y010592D03*
X012958Y010435D03*
X012998Y010317D03*
X012998Y010277D03*
X013037Y010198D03*
X013037Y010159D03*
X013076Y010041D03*
X013076Y010002D03*
X013076Y009962D03*
X013155Y009765D03*
X013194Y009529D03*
X013234Y009332D03*
X013273Y009214D03*
X013273Y009175D03*
X013313Y009096D03*
X013313Y009057D03*
X013313Y009017D03*
X013352Y008899D03*
X013391Y008742D03*
X013470Y008427D03*
X013470Y008387D03*
X013509Y008269D03*
X013509Y008191D03*
X013549Y008072D03*
X013588Y007915D03*
X013470Y007521D03*
X013509Y007443D03*
X013509Y007403D03*
X013509Y007364D03*
X013549Y007324D03*
X013549Y007285D03*
X013549Y007246D03*
X013549Y007167D03*
X013588Y007088D03*
X013313Y007088D03*
X013313Y007128D03*
X013313Y007206D03*
X013313Y007324D03*
X013273Y007364D03*
X013273Y007403D03*
X013273Y007443D03*
X013273Y007482D03*
X012998Y007403D03*
X012998Y007364D03*
X013037Y007246D03*
X013037Y007206D03*
X013037Y007167D03*
X013037Y007128D03*
X013037Y007049D03*
X013037Y007009D03*
X013037Y006970D03*
X012722Y007009D03*
X012722Y007088D03*
X012761Y007167D03*
X012761Y007246D03*
X012761Y007285D03*
X012761Y007324D03*
X012761Y007364D03*
X012761Y007403D03*
X012565Y007403D03*
X012446Y007324D03*
X012446Y007285D03*
X012446Y007206D03*
X012486Y007167D03*
X012446Y007128D03*
X012446Y007088D03*
X012446Y007049D03*
X012446Y007009D03*
X012446Y006970D03*
X012446Y006931D03*
X012171Y007009D03*
X012171Y007049D03*
X012210Y007128D03*
X012210Y007167D03*
X012210Y007206D03*
X011895Y007206D03*
X011895Y007167D03*
X011856Y007128D03*
X011856Y007049D03*
X011856Y007009D03*
X011856Y006970D03*
X011777Y006852D03*
X011580Y007088D03*
X011620Y007167D03*
X011462Y007482D03*
X011462Y007521D03*
X011462Y007600D03*
X011502Y008072D03*
X011502Y008348D03*
X011502Y008427D03*
X011502Y008545D03*
X011502Y008624D03*
X011502Y008663D03*
X011502Y008702D03*
X011502Y008742D03*
X011502Y008820D03*
X011541Y009293D03*
X011541Y009372D03*
X011541Y009411D03*
X011580Y009765D03*
X011580Y009844D03*
X010202Y009529D03*
X010202Y009490D03*
X010163Y009765D03*
X009887Y009844D03*
X010242Y009214D03*
X010242Y009175D03*
X010242Y009135D03*
X010281Y008978D03*
X011895Y007324D03*
X011895Y007285D03*
X011895Y007246D03*
X014966Y006380D03*
X014966Y006104D03*
X014966Y005592D03*
X014966Y005553D03*
X014966Y005474D03*
X014927Y005159D03*
X016265Y005120D03*
X016265Y005041D03*
X016265Y005002D03*
X016265Y004883D03*
X016265Y004805D03*
X016265Y004726D03*
X016265Y004647D03*
X016265Y004569D03*
X016265Y004450D03*
X016265Y004372D03*
X016265Y004293D03*
X016265Y004214D03*
X016305Y004096D03*
X016305Y003978D03*
X016305Y003899D03*
X016305Y003702D03*
X016305Y003624D03*
X016305Y003584D03*
X016305Y003545D03*
X016305Y003466D03*
X016305Y003387D03*
X016305Y003230D03*
X016305Y003112D03*
X016305Y003072D03*
X016305Y003033D03*
X016305Y002954D03*
X016305Y002876D03*
X016305Y002797D03*
X016305Y002679D03*
X016305Y002521D03*
X016856Y002797D03*
X016856Y002915D03*
X016856Y002994D03*
X016856Y003033D03*
X016856Y003072D03*
X016856Y003191D03*
X016856Y003230D03*
X016856Y003387D03*
X016817Y003427D03*
X016817Y003781D03*
X016817Y003820D03*
X016817Y003860D03*
X016817Y003939D03*
X016817Y004017D03*
X016817Y004135D03*
X016817Y004175D03*
X016777Y004293D03*
X016777Y004332D03*
X016777Y004411D03*
X016777Y004490D03*
X016777Y004569D03*
X016777Y004608D03*
X016777Y004647D03*
X016777Y004765D03*
X016777Y004805D03*
X016777Y004883D03*
X016777Y004962D03*
X016738Y005041D03*
X016777Y005238D03*
X016738Y005317D03*
X016738Y005395D03*
X016738Y005435D03*
X016738Y005474D03*
X016738Y005592D03*
X016738Y005671D03*
X016738Y005710D03*
X016738Y005868D03*
X016698Y006025D03*
X016698Y006104D03*
X016698Y006183D03*
X016698Y006222D03*
X016698Y006301D03*
X016698Y006419D03*
X016265Y006065D03*
X016265Y005789D03*
X016265Y005631D03*
X016265Y005553D03*
X016265Y005474D03*
X016265Y005356D03*
X016265Y005277D03*
X016265Y005238D03*
X015202Y006734D03*
X015281Y008781D03*
X016226Y009293D03*
X016226Y009450D03*
X016226Y009490D03*
X016226Y009529D03*
X016226Y009647D03*
X016226Y009687D03*
X016226Y009765D03*
X016226Y009844D03*
X016226Y009883D03*
X016226Y009962D03*
X016226Y010041D03*
X016226Y010080D03*
X016226Y010159D03*
X016226Y010277D03*
X016226Y010356D03*
X016187Y010435D03*
X016187Y010592D03*
X016187Y010671D03*
X016502Y010671D03*
X016502Y010710D03*
X016502Y010789D03*
X016502Y010513D03*
X016502Y010356D03*
X016541Y010317D03*
X016541Y010238D03*
X016541Y010159D03*
X016541Y010120D03*
X016541Y010041D03*
X016541Y009923D03*
X016541Y009844D03*
X016541Y009805D03*
X016541Y009726D03*
X016541Y009608D03*
X016580Y009411D03*
X016580Y009214D03*
X016580Y009175D03*
X016580Y009135D03*
X016777Y011340D03*
X016659Y011734D03*
X016698Y011773D03*
X016698Y011813D03*
X016738Y011852D03*
X016777Y011931D03*
X016777Y011970D03*
X016895Y011852D03*
X016856Y011773D03*
X016305Y011891D03*
X016305Y011970D03*
X016305Y012009D03*
X016305Y012049D03*
X016305Y012128D03*
X016305Y012206D03*
X016265Y011813D03*
X016265Y011773D03*
X015793Y011380D03*
X015793Y011340D03*
X015793Y011301D03*
X015517Y011813D03*
X015517Y011852D03*
X015478Y011891D03*
X015439Y012009D03*
X015439Y012049D03*
X015399Y012088D03*
X015399Y012128D03*
X014927Y012954D03*
X014179Y013230D03*
X014179Y013269D03*
X014179Y013309D03*
X014021Y014175D03*
X014021Y014254D03*
X014021Y014332D03*
X014021Y014923D03*
X014257Y014923D03*
X014257Y014962D03*
X014257Y015002D03*
X014257Y015041D03*
X014257Y015080D03*
X014297Y015159D03*
X014297Y015198D03*
X014297Y015277D03*
X014297Y015317D03*
X014297Y015356D03*
X014297Y015395D03*
X014297Y015435D03*
X014297Y015553D03*
X014336Y015592D03*
X014297Y015631D03*
X014336Y015671D03*
X014336Y015710D03*
X014336Y015789D03*
X014336Y015828D03*
X014533Y015671D03*
X014533Y015631D03*
X014533Y015592D03*
X014494Y015513D03*
X014494Y015474D03*
X014494Y015435D03*
X014494Y015395D03*
X014494Y015317D03*
X014454Y015159D03*
X014257Y014883D03*
X014021Y015317D03*
X014021Y015395D03*
X014021Y015435D03*
X014061Y015513D03*
X014061Y015671D03*
X014572Y015789D03*
X014572Y015828D03*
X014730Y015828D03*
X015084Y015750D03*
X015084Y015671D03*
X015045Y015631D03*
X015045Y015592D03*
X015045Y015553D03*
X015045Y015513D03*
X015045Y015474D03*
X015045Y015435D03*
X015045Y015395D03*
X015045Y015356D03*
X015045Y015317D03*
X015006Y015238D03*
X015006Y015198D03*
X015006Y015159D03*
X015006Y015080D03*
X015202Y015080D03*
X015202Y015041D03*
X015202Y015002D03*
X015202Y014962D03*
X015202Y014923D03*
X015202Y014883D03*
X015202Y014844D03*
X015202Y014805D03*
X015202Y014765D03*
X015202Y014726D03*
X015202Y014687D03*
X015202Y014569D03*
X015202Y014450D03*
X015202Y014372D03*
X015163Y014175D03*
X015202Y015120D03*
X015202Y015198D03*
X015202Y015238D03*
X015202Y015317D03*
X015202Y015356D03*
X015242Y015395D03*
X015242Y015435D03*
X015242Y015474D03*
X015242Y015513D03*
X015242Y015553D03*
X015281Y015671D03*
X015281Y015710D03*
X015281Y015750D03*
X015990Y015750D03*
X016423Y015474D03*
X016580Y015474D03*
X016580Y015513D03*
X016580Y015435D03*
X016580Y015356D03*
X016541Y015198D03*
X016541Y015159D03*
X016580Y015592D03*
X016580Y015631D03*
X016698Y015789D03*
X017053Y015513D03*
X017053Y015474D03*
X017092Y015435D03*
X017053Y015395D03*
X017053Y015356D03*
X017053Y015317D03*
X017053Y015277D03*
X017053Y015159D03*
X017013Y015080D03*
X017013Y015041D03*
X017013Y015002D03*
X017013Y014962D03*
X017013Y014923D03*
X017013Y014883D03*
X017013Y014844D03*
X017013Y014805D03*
X017013Y014765D03*
X016974Y014726D03*
X017013Y014490D03*
X017722Y014411D03*
X017722Y014372D03*
X017761Y014293D03*
X017722Y014608D03*
X017722Y014687D03*
X017722Y014726D03*
X017722Y014765D03*
X017722Y014844D03*
X017722Y014883D03*
X017722Y014923D03*
X017722Y014962D03*
X017722Y015002D03*
X017722Y015080D03*
X017722Y015120D03*
X017722Y015198D03*
X017722Y015238D03*
X017722Y015277D03*
X017722Y015317D03*
X017722Y015356D03*
X017722Y015395D03*
X017722Y015435D03*
X017722Y015474D03*
X017722Y015513D03*
X017761Y015553D03*
X017722Y015592D03*
X017761Y015631D03*
X017761Y015671D03*
X017761Y015710D03*
X017761Y015750D03*
X017880Y015986D03*
X018116Y015946D03*
X018155Y015631D03*
X018194Y015317D03*
X018273Y014411D03*
X018273Y014254D03*
X018273Y014214D03*
X018273Y014096D03*
X018273Y014017D03*
X018234Y013781D03*
X018234Y013742D03*
X018037Y013506D03*
X017013Y013348D03*
X017053Y013112D03*
X016777Y013072D03*
X016620Y012954D03*
X016147Y013033D03*
X016069Y013191D03*
X017092Y015553D03*
X017092Y015592D03*
X017092Y015631D03*
X017092Y015671D03*
X017368Y015868D03*
X010439Y015907D03*
X010439Y015986D03*
X010439Y016104D03*
X010399Y016222D03*
X010439Y016340D03*
X009730Y016458D03*
X010202Y012757D03*
X010006Y011852D03*
X010517Y011852D03*
X004100Y010159D03*
X003943Y013702D03*
X011817Y003230D03*
X012013Y003112D03*
X012368Y003072D03*
X012643Y003033D03*
X014966Y002561D03*
X016895Y002443D03*
X020281Y002364D03*
D29*
X015202Y004057D03*
X014139Y002757D03*
X013864Y002836D03*
X014494Y002679D03*
X009651Y002482D03*
X013234Y007561D03*
X012998Y008466D03*
X013194Y008506D03*
X013864Y009254D03*
X011974Y008309D03*
X011108Y009057D03*
X012328Y013033D03*
X011187Y013820D03*
X011029Y013860D03*
X007722Y015986D03*
X005635Y012797D03*
X003864Y013663D03*
X001580Y003584D03*
X001423Y003545D03*
X015990Y009175D03*
X016305Y010868D03*
D30*
X015478Y008820D03*
X011777Y007364D03*
X009376Y008939D03*
X012880Y013112D03*
X013313Y013191D03*
X011856Y013702D03*
X010478Y013939D03*
X015163Y015828D03*
X015990Y015828D03*
X013391Y002954D03*
X009533Y002521D03*
X009218Y002600D03*
X007643Y002600D03*
D31*
X007466Y002561D03*
X005340Y003545D03*
X003057Y003584D03*
X010891Y003033D03*
X013017Y003033D03*
X014828Y004135D03*
X013490Y013230D03*
X011639Y013742D03*
X017427Y013112D03*
X017939Y013427D03*
X017506Y015828D03*
D32*
X017250Y015789D03*
X017722Y013387D03*
X017446Y013348D03*
X017210Y013072D03*
X016817Y011694D03*
X014691Y013033D03*
X014415Y013348D03*
X012998Y013506D03*
X012525Y013584D03*
X012092Y013663D03*
X012013Y012994D03*
X010754Y013899D03*
X010124Y016458D03*
X007761Y016025D03*
X006974Y014647D03*
X009730Y018899D03*
X010911Y009017D03*
X011738Y008269D03*
X016029Y003860D03*
X013667Y002876D03*
X009336Y002561D03*
D33*
X008332Y002639D03*
X009277Y018663D03*
D34*
X010931Y015750D03*
X002387Y003624D03*
X008372Y002679D03*
D35*
X008391Y002718D03*
X016698Y015750D03*
D36*
X017860Y015907D03*
X012545Y013072D03*
X011797Y012954D03*
X011324Y015907D03*
X012978Y007521D03*
X012742Y007482D03*
X016246Y006616D03*
X013569Y002915D03*
X005537Y003584D03*
X004710Y003387D03*
D37*
X004691Y003427D03*
X013273Y002994D03*
X016777Y013033D03*
X011226Y015868D03*
D38*
X012801Y013545D03*
X013076Y013151D03*
X014769Y013309D03*
X016817Y015710D03*
X014848Y015868D03*
X016226Y008978D03*
X011108Y003072D03*
X006108Y003702D03*
D39*
X010734Y008978D03*
X012466Y007443D03*
X012820Y003072D03*
X014395Y015907D03*
X017820Y015868D03*
X007820Y016065D03*
D40*
X007171Y014687D03*
X003864Y013584D03*
X010596Y012836D03*
X016147Y008939D03*
X011423Y003112D03*
D41*
X012545Y003112D03*
X010458Y008939D03*
X010261Y011773D03*
X011443Y012915D03*
D42*
X010813Y015710D03*
X009474Y018781D03*
X007466Y014883D03*
X011954Y003151D03*
D43*
X011935Y003191D03*
X016108Y011616D03*
X007919Y016183D03*
X007171Y014726D03*
D44*
X011954Y007403D03*
X003765Y003506D03*
D45*
X003647Y003545D03*
X006049Y003663D03*
X015340Y006813D03*
X016206Y011419D03*
X017072Y013309D03*
X007899Y016143D03*
D46*
X007840Y016104D03*
X003864Y013624D03*
X005754Y003624D03*
D47*
X009907Y008860D03*
X014907Y004096D03*
X015498Y006773D03*
D48*
X009927Y008899D03*
D49*
X016206Y008899D03*
X011128Y015828D03*
X009631Y018860D03*
D50*
X011009Y015789D03*
X010104Y009883D03*
D51*
X010084Y009923D03*
X016226Y011655D03*
X008155Y016340D03*
D52*
X007210Y014765D03*
X010950Y012876D03*
X016305Y011458D03*
D53*
X010222Y011813D03*
X008017Y016261D03*
D54*
X007348Y014844D03*
X015813Y012954D03*
X015891Y013230D03*
D55*
X015793Y012994D03*
X010124Y015513D03*
X008470Y016458D03*
X009139Y018584D03*
D56*
X015970Y013269D03*
D57*
X007250Y014805D03*
D58*
X007584Y014923D03*
X008214Y016380D03*
X009395Y018742D03*
D59*
X009317Y018702D03*
X008293Y016419D03*
X007702Y014962D03*
D60*
X007820Y015002D03*
D61*
X007958Y015041D03*
X008706Y015198D03*
D62*
X008844Y015238D03*
X008490Y015159D03*
X008096Y015080D03*
D63*
X008293Y015120D03*
X009238Y015317D03*
X009435Y015356D03*
X010301Y015553D03*
X009198Y018624D03*
D64*
X010439Y015592D03*
X009572Y015395D03*
X009061Y015277D03*
D65*
X009946Y015435D03*
D66*
X010006Y015474D03*
D67*
X010596Y015631D03*
D68*
X010694Y015671D03*
D69*
X015813Y015789D03*
D70*
X007978Y016222D03*
D71*
X008076Y016301D03*
X009533Y018820D03*
D72*
X008844Y016576D03*
X008844Y016537D03*
X008844Y016498D03*
D73*
X008824Y016616D03*
X008824Y016655D03*
X008824Y016694D03*
X008746Y018230D03*
D74*
X008687Y018191D03*
X008805Y016773D03*
X008805Y016734D03*
D75*
X008785Y016813D03*
X008785Y016852D03*
X008785Y016891D03*
D76*
X008765Y016931D03*
X008765Y016970D03*
X008765Y017009D03*
X008687Y018151D03*
D77*
X008706Y017246D03*
X008746Y017128D03*
X008746Y017088D03*
X008746Y017049D03*
D78*
X008726Y017167D03*
X008726Y017206D03*
X008687Y017285D03*
X008687Y017324D03*
X008647Y018112D03*
D79*
X008667Y017443D03*
X008667Y017403D03*
X008667Y017364D03*
D80*
X008647Y017482D03*
X008647Y017521D03*
X008608Y017600D03*
X008608Y018072D03*
D81*
X008588Y017718D03*
X008588Y017679D03*
X008628Y017639D03*
X008628Y017561D03*
D82*
X008569Y017757D03*
X008569Y017797D03*
X008569Y017836D03*
X008569Y018033D03*
D83*
X008549Y017994D03*
X008549Y017954D03*
X008549Y017915D03*
X008549Y017876D03*
D84*
X008785Y018269D03*
D85*
X008805Y018309D03*
D86*
X008844Y018348D03*
D87*
X008883Y018387D03*
D88*
X008943Y018427D03*
D89*
X008982Y018466D03*
D90*
X009021Y018506D03*
D91*
X009080Y018545D03*
M02*
