G75*
G70*
%OFA0B0*%
%FSLAX24Y24*%
%IPPOS*%
%LPD*%
%AMOC8*
5,1,8,0,0,1.08239X$1,22.5*
%
%ADD10C,0.0000*%
%ADD11R,0.0433X0.0394*%
%ADD12R,0.1600X0.1600*%
%ADD13R,0.2000X0.2000*%
%ADD14R,0.0870X0.0240*%
%ADD15R,0.0394X0.0433*%
D10*
X000655Y002624D02*
X000655Y018372D01*
X001994Y018372D02*
X001996Y018422D01*
X002002Y018472D01*
X002012Y018521D01*
X002026Y018569D01*
X002043Y018616D01*
X002064Y018661D01*
X002089Y018705D01*
X002117Y018746D01*
X002149Y018785D01*
X002183Y018822D01*
X002220Y018856D01*
X002260Y018886D01*
X002302Y018913D01*
X002346Y018937D01*
X002392Y018958D01*
X002439Y018974D01*
X002487Y018987D01*
X002537Y018996D01*
X002586Y019001D01*
X002637Y019002D01*
X002687Y018999D01*
X002736Y018992D01*
X002785Y018981D01*
X002833Y018966D01*
X002879Y018948D01*
X002924Y018926D01*
X002967Y018900D01*
X003008Y018871D01*
X003047Y018839D01*
X003083Y018804D01*
X003115Y018766D01*
X003145Y018726D01*
X003172Y018683D01*
X003195Y018639D01*
X003214Y018593D01*
X003230Y018545D01*
X003242Y018496D01*
X003250Y018447D01*
X003254Y018397D01*
X003254Y018347D01*
X003250Y018297D01*
X003242Y018248D01*
X003230Y018199D01*
X003214Y018151D01*
X003195Y018105D01*
X003172Y018061D01*
X003145Y018018D01*
X003115Y017978D01*
X003083Y017940D01*
X003047Y017905D01*
X003008Y017873D01*
X002967Y017844D01*
X002924Y017818D01*
X002879Y017796D01*
X002833Y017778D01*
X002785Y017763D01*
X002736Y017752D01*
X002687Y017745D01*
X002637Y017742D01*
X002586Y017743D01*
X002537Y017748D01*
X002487Y017757D01*
X002439Y017770D01*
X002392Y017786D01*
X002346Y017807D01*
X002302Y017831D01*
X002260Y017858D01*
X002220Y017888D01*
X002183Y017922D01*
X002149Y017959D01*
X002117Y017998D01*
X002089Y018039D01*
X002064Y018083D01*
X002043Y018128D01*
X002026Y018175D01*
X002012Y018223D01*
X002002Y018272D01*
X001996Y018322D01*
X001994Y018372D01*
X000655Y018372D02*
X000657Y018466D01*
X000664Y018559D01*
X000675Y018652D01*
X000691Y018745D01*
X000711Y018836D01*
X000735Y018927D01*
X000763Y019016D01*
X000796Y019104D01*
X000833Y019190D01*
X000874Y019274D01*
X000919Y019357D01*
X000968Y019437D01*
X001020Y019514D01*
X001076Y019589D01*
X001136Y019661D01*
X001199Y019731D01*
X001265Y019797D01*
X001335Y019860D01*
X001407Y019920D01*
X001482Y019976D01*
X001559Y020028D01*
X001639Y020077D01*
X001722Y020122D01*
X001806Y020163D01*
X001892Y020200D01*
X001980Y020233D01*
X002069Y020261D01*
X002160Y020285D01*
X002251Y020305D01*
X002344Y020321D01*
X002437Y020332D01*
X002530Y020339D01*
X002624Y020341D01*
X002624Y020340D02*
X018372Y020340D01*
X017742Y018372D02*
X017744Y018422D01*
X017750Y018472D01*
X017760Y018521D01*
X017774Y018569D01*
X017791Y018616D01*
X017812Y018661D01*
X017837Y018705D01*
X017865Y018746D01*
X017897Y018785D01*
X017931Y018822D01*
X017968Y018856D01*
X018008Y018886D01*
X018050Y018913D01*
X018094Y018937D01*
X018140Y018958D01*
X018187Y018974D01*
X018235Y018987D01*
X018285Y018996D01*
X018334Y019001D01*
X018385Y019002D01*
X018435Y018999D01*
X018484Y018992D01*
X018533Y018981D01*
X018581Y018966D01*
X018627Y018948D01*
X018672Y018926D01*
X018715Y018900D01*
X018756Y018871D01*
X018795Y018839D01*
X018831Y018804D01*
X018863Y018766D01*
X018893Y018726D01*
X018920Y018683D01*
X018943Y018639D01*
X018962Y018593D01*
X018978Y018545D01*
X018990Y018496D01*
X018998Y018447D01*
X019002Y018397D01*
X019002Y018347D01*
X018998Y018297D01*
X018990Y018248D01*
X018978Y018199D01*
X018962Y018151D01*
X018943Y018105D01*
X018920Y018061D01*
X018893Y018018D01*
X018863Y017978D01*
X018831Y017940D01*
X018795Y017905D01*
X018756Y017873D01*
X018715Y017844D01*
X018672Y017818D01*
X018627Y017796D01*
X018581Y017778D01*
X018533Y017763D01*
X018484Y017752D01*
X018435Y017745D01*
X018385Y017742D01*
X018334Y017743D01*
X018285Y017748D01*
X018235Y017757D01*
X018187Y017770D01*
X018140Y017786D01*
X018094Y017807D01*
X018050Y017831D01*
X018008Y017858D01*
X017968Y017888D01*
X017931Y017922D01*
X017897Y017959D01*
X017865Y017998D01*
X017837Y018039D01*
X017812Y018083D01*
X017791Y018128D01*
X017774Y018175D01*
X017760Y018223D01*
X017750Y018272D01*
X017744Y018322D01*
X017742Y018372D01*
X018372Y020341D02*
X018466Y020339D01*
X018559Y020332D01*
X018652Y020321D01*
X018745Y020305D01*
X018836Y020285D01*
X018927Y020261D01*
X019016Y020233D01*
X019104Y020200D01*
X019190Y020163D01*
X019274Y020122D01*
X019356Y020077D01*
X019437Y020028D01*
X019514Y019976D01*
X019589Y019920D01*
X019661Y019860D01*
X019731Y019797D01*
X019797Y019731D01*
X019860Y019661D01*
X019920Y019589D01*
X019976Y019514D01*
X020028Y019437D01*
X020077Y019356D01*
X020122Y019274D01*
X020163Y019190D01*
X020200Y019104D01*
X020233Y019016D01*
X020261Y018927D01*
X020285Y018836D01*
X020305Y018745D01*
X020321Y018652D01*
X020332Y018559D01*
X020339Y018466D01*
X020341Y018372D01*
X020340Y018372D02*
X020340Y002624D01*
X020341Y002624D02*
X020339Y002530D01*
X020332Y002437D01*
X020321Y002344D01*
X020305Y002251D01*
X020285Y002160D01*
X020261Y002069D01*
X020233Y001980D01*
X020200Y001892D01*
X020163Y001806D01*
X020122Y001722D01*
X020077Y001640D01*
X020028Y001559D01*
X019976Y001482D01*
X019920Y001407D01*
X019860Y001335D01*
X019797Y001265D01*
X019731Y001199D01*
X019661Y001136D01*
X019589Y001076D01*
X019514Y001020D01*
X019437Y000968D01*
X019357Y000919D01*
X019274Y000874D01*
X019190Y000833D01*
X019104Y000796D01*
X019016Y000763D01*
X018927Y000735D01*
X018836Y000711D01*
X018745Y000691D01*
X018652Y000675D01*
X018559Y000664D01*
X018466Y000657D01*
X018372Y000655D01*
X002624Y000655D01*
X002530Y000657D01*
X002437Y000664D01*
X002344Y000675D01*
X002251Y000691D01*
X002160Y000711D01*
X002069Y000735D01*
X001980Y000763D01*
X001892Y000796D01*
X001806Y000833D01*
X001722Y000874D01*
X001639Y000919D01*
X001559Y000968D01*
X001482Y001020D01*
X001407Y001076D01*
X001335Y001136D01*
X001265Y001199D01*
X001199Y001265D01*
X001136Y001335D01*
X001076Y001407D01*
X001020Y001482D01*
X000968Y001559D01*
X000919Y001640D01*
X000874Y001722D01*
X000833Y001806D01*
X000796Y001892D01*
X000763Y001980D01*
X000735Y002069D01*
X000711Y002160D01*
X000691Y002251D01*
X000675Y002344D01*
X000664Y002437D01*
X000657Y002530D01*
X000655Y002624D01*
D11*
X006655Y012320D03*
X006655Y012990D03*
X007655Y012990D03*
X007655Y012320D03*
X008655Y012320D03*
X008655Y012990D03*
X009655Y012990D03*
X009655Y012320D03*
X010655Y012320D03*
X010655Y012990D03*
X011655Y012990D03*
X011655Y012320D03*
X012655Y012320D03*
X012655Y012990D03*
X013655Y012990D03*
X013655Y012320D03*
X014655Y012320D03*
X014655Y012990D03*
X010990Y019155D03*
X010320Y019155D03*
D12*
X010498Y004655D03*
D13*
X015548Y004655D03*
X005448Y004655D03*
D14*
X009625Y015405D03*
X009625Y015905D03*
X009625Y016405D03*
X009625Y016905D03*
X009625Y017405D03*
X009625Y017905D03*
X009625Y018405D03*
X011685Y018405D03*
X011685Y017905D03*
X011685Y017405D03*
X011685Y016905D03*
X011685Y016405D03*
X011685Y015905D03*
X011685Y015405D03*
D15*
X012945Y016905D03*
X013615Y016905D03*
X008490Y017905D03*
X007820Y017905D03*
M02*
