G75*
G70*
%OFA0B0*%
%FSLAX24Y24*%
%IPPOS*%
%LPD*%
%AMOC8*
5,1,8,0,0,1.08239X$1,22.5*
%
%ADD10C,0.0000*%
%ADD11C,0.0050*%
%ADD12C,0.0080*%
%ADD13C,0.0010*%
%ADD14C,0.0060*%
%ADD15C,0.0020*%
%ADD16C,0.0100*%
D10*
X000655Y002624D02*
X000655Y018372D01*
X001994Y018372D02*
X001996Y018422D01*
X002002Y018472D01*
X002012Y018521D01*
X002026Y018569D01*
X002043Y018616D01*
X002064Y018661D01*
X002089Y018705D01*
X002117Y018746D01*
X002149Y018785D01*
X002183Y018822D01*
X002220Y018856D01*
X002260Y018886D01*
X002302Y018913D01*
X002346Y018937D01*
X002392Y018958D01*
X002439Y018974D01*
X002487Y018987D01*
X002537Y018996D01*
X002586Y019001D01*
X002637Y019002D01*
X002687Y018999D01*
X002736Y018992D01*
X002785Y018981D01*
X002833Y018966D01*
X002879Y018948D01*
X002924Y018926D01*
X002967Y018900D01*
X003008Y018871D01*
X003047Y018839D01*
X003083Y018804D01*
X003115Y018766D01*
X003145Y018726D01*
X003172Y018683D01*
X003195Y018639D01*
X003214Y018593D01*
X003230Y018545D01*
X003242Y018496D01*
X003250Y018447D01*
X003254Y018397D01*
X003254Y018347D01*
X003250Y018297D01*
X003242Y018248D01*
X003230Y018199D01*
X003214Y018151D01*
X003195Y018105D01*
X003172Y018061D01*
X003145Y018018D01*
X003115Y017978D01*
X003083Y017940D01*
X003047Y017905D01*
X003008Y017873D01*
X002967Y017844D01*
X002924Y017818D01*
X002879Y017796D01*
X002833Y017778D01*
X002785Y017763D01*
X002736Y017752D01*
X002687Y017745D01*
X002637Y017742D01*
X002586Y017743D01*
X002537Y017748D01*
X002487Y017757D01*
X002439Y017770D01*
X002392Y017786D01*
X002346Y017807D01*
X002302Y017831D01*
X002260Y017858D01*
X002220Y017888D01*
X002183Y017922D01*
X002149Y017959D01*
X002117Y017998D01*
X002089Y018039D01*
X002064Y018083D01*
X002043Y018128D01*
X002026Y018175D01*
X002012Y018223D01*
X002002Y018272D01*
X001996Y018322D01*
X001994Y018372D01*
X000655Y018372D02*
X000657Y018466D01*
X000664Y018559D01*
X000675Y018652D01*
X000691Y018745D01*
X000711Y018836D01*
X000735Y018927D01*
X000763Y019016D01*
X000796Y019104D01*
X000833Y019190D01*
X000874Y019274D01*
X000919Y019357D01*
X000968Y019437D01*
X001020Y019514D01*
X001076Y019589D01*
X001136Y019661D01*
X001199Y019731D01*
X001265Y019797D01*
X001335Y019860D01*
X001407Y019920D01*
X001482Y019976D01*
X001559Y020028D01*
X001639Y020077D01*
X001722Y020122D01*
X001806Y020163D01*
X001892Y020200D01*
X001980Y020233D01*
X002069Y020261D01*
X002160Y020285D01*
X002251Y020305D01*
X002344Y020321D01*
X002437Y020332D01*
X002530Y020339D01*
X002624Y020341D01*
X002624Y020340D02*
X018372Y020340D01*
X017742Y018372D02*
X017744Y018422D01*
X017750Y018472D01*
X017760Y018521D01*
X017774Y018569D01*
X017791Y018616D01*
X017812Y018661D01*
X017837Y018705D01*
X017865Y018746D01*
X017897Y018785D01*
X017931Y018822D01*
X017968Y018856D01*
X018008Y018886D01*
X018050Y018913D01*
X018094Y018937D01*
X018140Y018958D01*
X018187Y018974D01*
X018235Y018987D01*
X018285Y018996D01*
X018334Y019001D01*
X018385Y019002D01*
X018435Y018999D01*
X018484Y018992D01*
X018533Y018981D01*
X018581Y018966D01*
X018627Y018948D01*
X018672Y018926D01*
X018715Y018900D01*
X018756Y018871D01*
X018795Y018839D01*
X018831Y018804D01*
X018863Y018766D01*
X018893Y018726D01*
X018920Y018683D01*
X018943Y018639D01*
X018962Y018593D01*
X018978Y018545D01*
X018990Y018496D01*
X018998Y018447D01*
X019002Y018397D01*
X019002Y018347D01*
X018998Y018297D01*
X018990Y018248D01*
X018978Y018199D01*
X018962Y018151D01*
X018943Y018105D01*
X018920Y018061D01*
X018893Y018018D01*
X018863Y017978D01*
X018831Y017940D01*
X018795Y017905D01*
X018756Y017873D01*
X018715Y017844D01*
X018672Y017818D01*
X018627Y017796D01*
X018581Y017778D01*
X018533Y017763D01*
X018484Y017752D01*
X018435Y017745D01*
X018385Y017742D01*
X018334Y017743D01*
X018285Y017748D01*
X018235Y017757D01*
X018187Y017770D01*
X018140Y017786D01*
X018094Y017807D01*
X018050Y017831D01*
X018008Y017858D01*
X017968Y017888D01*
X017931Y017922D01*
X017897Y017959D01*
X017865Y017998D01*
X017837Y018039D01*
X017812Y018083D01*
X017791Y018128D01*
X017774Y018175D01*
X017760Y018223D01*
X017750Y018272D01*
X017744Y018322D01*
X017742Y018372D01*
X018372Y020341D02*
X018466Y020339D01*
X018559Y020332D01*
X018652Y020321D01*
X018745Y020305D01*
X018836Y020285D01*
X018927Y020261D01*
X019016Y020233D01*
X019104Y020200D01*
X019190Y020163D01*
X019274Y020122D01*
X019356Y020077D01*
X019437Y020028D01*
X019514Y019976D01*
X019589Y019920D01*
X019661Y019860D01*
X019731Y019797D01*
X019797Y019731D01*
X019860Y019661D01*
X019920Y019589D01*
X019976Y019514D01*
X020028Y019437D01*
X020077Y019356D01*
X020122Y019274D01*
X020163Y019190D01*
X020200Y019104D01*
X020233Y019016D01*
X020261Y018927D01*
X020285Y018836D01*
X020305Y018745D01*
X020321Y018652D01*
X020332Y018559D01*
X020339Y018466D01*
X020341Y018372D01*
X020340Y018372D02*
X020340Y002624D01*
X020341Y002624D02*
X020339Y002530D01*
X020332Y002437D01*
X020321Y002344D01*
X020305Y002251D01*
X020285Y002160D01*
X020261Y002069D01*
X020233Y001980D01*
X020200Y001892D01*
X020163Y001806D01*
X020122Y001722D01*
X020077Y001640D01*
X020028Y001559D01*
X019976Y001482D01*
X019920Y001407D01*
X019860Y001335D01*
X019797Y001265D01*
X019731Y001199D01*
X019661Y001136D01*
X019589Y001076D01*
X019514Y001020D01*
X019437Y000968D01*
X019357Y000919D01*
X019274Y000874D01*
X019190Y000833D01*
X019104Y000796D01*
X019016Y000763D01*
X018927Y000735D01*
X018836Y000711D01*
X018745Y000691D01*
X018652Y000675D01*
X018559Y000664D01*
X018466Y000657D01*
X018372Y000655D01*
X002624Y000655D01*
X002530Y000657D01*
X002437Y000664D01*
X002344Y000675D01*
X002251Y000691D01*
X002160Y000711D01*
X002069Y000735D01*
X001980Y000763D01*
X001892Y000796D01*
X001806Y000833D01*
X001722Y000874D01*
X001639Y000919D01*
X001559Y000968D01*
X001482Y001020D01*
X001407Y001076D01*
X001335Y001136D01*
X001265Y001199D01*
X001199Y001265D01*
X001136Y001335D01*
X001076Y001407D01*
X001020Y001482D01*
X000968Y001559D01*
X000919Y001640D01*
X000874Y001722D01*
X000833Y001806D01*
X000796Y001892D01*
X000763Y001980D01*
X000735Y002069D01*
X000711Y002160D01*
X000691Y002251D01*
X000675Y002344D01*
X000664Y002437D01*
X000657Y002530D01*
X000655Y002624D01*
D11*
X008214Y006180D02*
X008447Y006180D01*
X008214Y006414D01*
X008214Y006472D01*
X008272Y006530D01*
X008389Y006530D01*
X008447Y006472D01*
X008582Y006472D02*
X008815Y006238D01*
X008757Y006180D01*
X008640Y006180D01*
X008582Y006238D01*
X008582Y006472D01*
X008640Y006530D01*
X008757Y006530D01*
X008815Y006472D01*
X008815Y006238D01*
X008950Y006238D02*
X008950Y006472D01*
X009009Y006530D01*
X009125Y006530D01*
X009184Y006472D01*
X009184Y006414D01*
X009125Y006355D01*
X008950Y006355D01*
X008950Y006238D02*
X009009Y006180D01*
X009125Y006180D01*
X009184Y006238D01*
X009318Y006238D02*
X009377Y006180D01*
X009494Y006180D01*
X009552Y006238D01*
X009552Y006355D02*
X009435Y006414D01*
X009377Y006414D01*
X009318Y006355D01*
X009318Y006238D01*
X009552Y006355D02*
X009552Y006530D01*
X009318Y006530D01*
X009687Y006472D02*
X009687Y006414D01*
X009745Y006355D01*
X009687Y006297D01*
X009687Y006238D01*
X009745Y006180D01*
X009862Y006180D01*
X009920Y006238D01*
X009804Y006355D02*
X009745Y006355D01*
X009687Y006472D02*
X009745Y006530D01*
X009862Y006530D01*
X009920Y006472D01*
X010423Y006472D02*
X010423Y006355D01*
X010482Y006297D01*
X010657Y006297D01*
X010540Y006297D02*
X010423Y006180D01*
X010657Y006180D02*
X010657Y006530D01*
X010482Y006530D01*
X010423Y006472D01*
X010792Y006530D02*
X011025Y006530D01*
X011025Y006180D01*
X010792Y006180D01*
X010908Y006355D02*
X011025Y006355D01*
X011160Y006238D02*
X011160Y006472D01*
X011218Y006530D01*
X011394Y006530D01*
X011394Y006180D01*
X011218Y006180D01*
X011160Y006238D01*
X011528Y006180D02*
X011645Y006297D01*
X011587Y006297D02*
X011762Y006297D01*
X011762Y006180D02*
X011762Y006530D01*
X011587Y006530D01*
X011528Y006472D01*
X011528Y006355D01*
X011587Y006297D01*
X011897Y006238D02*
X011897Y006472D01*
X011955Y006530D01*
X012072Y006530D01*
X012130Y006472D01*
X012130Y006238D01*
X012072Y006180D01*
X011955Y006180D01*
X011897Y006238D01*
X011780Y013430D02*
X011430Y013430D01*
X011547Y013430D02*
X011547Y013605D01*
X011605Y013664D01*
X011722Y013664D01*
X011780Y013605D01*
X011780Y013430D01*
X011547Y013547D02*
X011430Y013664D01*
X011488Y013798D02*
X011430Y013857D01*
X011430Y013974D01*
X011488Y014032D01*
X011547Y014032D01*
X011605Y013974D01*
X011605Y013915D01*
X011605Y013974D02*
X011664Y014032D01*
X011722Y014032D01*
X011780Y013974D01*
X011780Y013857D01*
X011722Y013798D01*
X012430Y013664D02*
X012547Y013547D01*
X012547Y013605D02*
X012547Y013430D01*
X012430Y013430D02*
X012780Y013430D01*
X012780Y013605D01*
X012722Y013664D01*
X012605Y013664D01*
X012547Y013605D01*
X012605Y013798D02*
X012605Y014032D01*
X012430Y013974D02*
X012780Y013974D01*
X012605Y013798D01*
X013430Y013857D02*
X013488Y013798D01*
X013430Y013857D02*
X013430Y013974D01*
X013488Y014032D01*
X013605Y014032D01*
X013664Y013974D01*
X013664Y013915D01*
X013605Y013798D01*
X013780Y013798D01*
X013780Y014032D01*
X013722Y013664D02*
X013605Y013664D01*
X013547Y013605D01*
X013547Y013430D01*
X013547Y013547D02*
X013430Y013664D01*
X013430Y013430D02*
X013780Y013430D01*
X013780Y013605D01*
X013722Y013664D01*
X014430Y013664D02*
X014547Y013547D01*
X014547Y013605D02*
X014547Y013430D01*
X014430Y013430D02*
X014780Y013430D01*
X014780Y013605D01*
X014722Y013664D01*
X014605Y013664D01*
X014547Y013605D01*
X014605Y013798D02*
X014488Y013798D01*
X014430Y013857D01*
X014430Y013974D01*
X014488Y014032D01*
X014547Y014032D01*
X014605Y013974D01*
X014605Y013798D01*
X014722Y013915D01*
X014780Y014032D01*
X013735Y016030D02*
X013735Y016380D01*
X013560Y016380D01*
X013502Y016322D01*
X013502Y016205D01*
X013560Y016147D01*
X013735Y016147D01*
X013618Y016147D02*
X013502Y016030D01*
X013367Y016030D02*
X013133Y016030D01*
X013250Y016030D02*
X013250Y016380D01*
X013367Y016264D01*
X012998Y016322D02*
X012998Y016088D01*
X012765Y016322D01*
X012765Y016088D01*
X012823Y016030D01*
X012940Y016030D01*
X012998Y016088D01*
X012998Y016322D02*
X012940Y016380D01*
X012823Y016380D01*
X012765Y016322D01*
X010942Y014930D02*
X010942Y014638D01*
X010883Y014580D01*
X010767Y014580D01*
X010708Y014638D01*
X010708Y014930D01*
X010573Y014814D02*
X010457Y014930D01*
X010457Y014580D01*
X010573Y014580D02*
X010340Y014580D01*
X010430Y014032D02*
X010430Y013798D01*
X010664Y014032D01*
X010722Y014032D01*
X010780Y013974D01*
X010780Y013857D01*
X010722Y013798D01*
X010722Y013664D02*
X010605Y013664D01*
X010547Y013605D01*
X010547Y013430D01*
X010547Y013547D02*
X010430Y013664D01*
X010430Y013430D02*
X010780Y013430D01*
X010780Y013605D01*
X010722Y013664D01*
X009780Y013605D02*
X009780Y013430D01*
X009430Y013430D01*
X009547Y013430D02*
X009547Y013605D01*
X009605Y013664D01*
X009722Y013664D01*
X009780Y013605D01*
X009664Y013798D02*
X009780Y013915D01*
X009430Y013915D01*
X009430Y013798D02*
X009430Y014032D01*
X009430Y013664D02*
X009547Y013547D01*
X008780Y013605D02*
X008780Y013430D01*
X008430Y013430D01*
X008547Y013430D02*
X008547Y013605D01*
X008605Y013664D01*
X008722Y013664D01*
X008780Y013605D01*
X008780Y013798D02*
X008780Y014032D01*
X008722Y014032D01*
X008488Y013798D01*
X008430Y013798D01*
X008430Y013664D02*
X008547Y013547D01*
X007780Y013605D02*
X007780Y013430D01*
X007430Y013430D01*
X007547Y013430D02*
X007547Y013605D01*
X007605Y013664D01*
X007722Y013664D01*
X007780Y013605D01*
X007722Y013798D02*
X007664Y013798D01*
X007605Y013857D01*
X007605Y013974D01*
X007547Y014032D01*
X007488Y014032D01*
X007430Y013974D01*
X007430Y013857D01*
X007488Y013798D01*
X007547Y013798D01*
X007605Y013857D01*
X007605Y013974D02*
X007664Y014032D01*
X007722Y014032D01*
X007780Y013974D01*
X007780Y013857D01*
X007722Y013798D01*
X007547Y013547D02*
X007430Y013664D01*
X006780Y013605D02*
X006780Y013430D01*
X006430Y013430D01*
X006547Y013430D02*
X006547Y013605D01*
X006605Y013664D01*
X006722Y013664D01*
X006780Y013605D01*
X006722Y013798D02*
X006664Y013798D01*
X006605Y013857D01*
X006605Y014032D01*
X006488Y014032D02*
X006722Y014032D01*
X006780Y013974D01*
X006780Y013857D01*
X006722Y013798D01*
X006488Y013798D02*
X006430Y013857D01*
X006430Y013974D01*
X006488Y014032D01*
X006430Y013664D02*
X006547Y013547D01*
X007640Y017030D02*
X007873Y017030D01*
X007757Y017030D02*
X007757Y017380D01*
X007873Y017264D01*
X008008Y017030D02*
X008242Y017030D01*
X008125Y017030D02*
X008125Y017380D01*
X008242Y017264D01*
X008377Y017322D02*
X008377Y017205D01*
X008435Y017147D01*
X008610Y017147D01*
X008493Y017147D02*
X008377Y017030D01*
X008610Y017030D02*
X008610Y017380D01*
X008435Y017380D01*
X008377Y017322D01*
X010278Y019430D02*
X010512Y019430D01*
X010395Y019430D02*
X010395Y019780D01*
X010512Y019664D01*
X010647Y019722D02*
X010705Y019780D01*
X010822Y019780D01*
X010880Y019722D01*
X010880Y019488D01*
X010822Y019430D01*
X010705Y019430D01*
X010647Y019488D01*
D12*
X011954Y008553D02*
X009041Y008553D01*
X006364Y006899D01*
X006364Y005836D01*
X006364Y003474D02*
X006364Y002569D01*
X006364Y002568D02*
X006365Y002501D01*
X006370Y002433D01*
X006379Y002366D01*
X006391Y002299D01*
X006408Y002234D01*
X006428Y002169D01*
X006452Y002106D01*
X006480Y002044D01*
X006511Y001984D01*
X006546Y001925D01*
X006584Y001869D01*
X006625Y001815D01*
X006669Y001764D01*
X006716Y001715D01*
X006766Y001669D01*
X006818Y001626D01*
X006873Y001587D01*
X006930Y001550D01*
X006989Y001517D01*
X007050Y001487D01*
X007113Y001461D01*
X007177Y001438D01*
X007242Y001420D01*
X007308Y001405D01*
X007375Y001394D01*
X007442Y001386D01*
X007510Y001383D01*
X007578Y001384D01*
X007645Y001388D01*
X007712Y001397D01*
X007779Y001409D01*
X007845Y001426D01*
X007910Y001446D01*
X007973Y001469D01*
X008035Y001497D01*
X008095Y001528D01*
X008154Y001562D01*
X008210Y001600D01*
X008264Y001641D01*
X008316Y001685D01*
X008364Y001732D01*
X008411Y001781D01*
X008411Y001780D02*
X008509Y001879D01*
X008612Y001972D01*
X008719Y002061D01*
X008831Y002144D01*
X008946Y002222D01*
X009064Y002294D01*
X009187Y002360D01*
X009312Y002421D01*
X009440Y002475D01*
X009570Y002523D01*
X009703Y002565D01*
X009837Y002600D01*
X009973Y002629D01*
X010110Y002651D01*
X010248Y002666D01*
X010387Y002675D01*
X010526Y002677D01*
X010665Y002672D01*
X010803Y002661D01*
X010941Y002643D01*
X011078Y002618D01*
X011213Y002587D01*
X011347Y002549D01*
X011479Y002505D01*
X011608Y002455D01*
X011735Y002398D01*
X011859Y002335D01*
X011980Y002267D01*
X012097Y002193D01*
X012211Y002113D01*
X012321Y002027D01*
X012426Y001937D01*
X012527Y001841D01*
X012623Y001741D01*
X012584Y001781D02*
X012631Y001733D01*
X012680Y001687D01*
X012732Y001645D01*
X012787Y001605D01*
X012843Y001569D01*
X012901Y001536D01*
X012962Y001506D01*
X013023Y001480D01*
X013087Y001457D01*
X013151Y001438D01*
X013216Y001423D01*
X013282Y001411D01*
X013349Y001404D01*
X013416Y001400D01*
X013483Y001399D01*
X013550Y001403D01*
X013617Y001410D01*
X013683Y001422D01*
X013748Y001437D01*
X013813Y001455D01*
X013876Y001478D01*
X013938Y001503D01*
X013999Y001533D01*
X014057Y001566D01*
X014114Y001602D01*
X014168Y001641D01*
X014220Y001683D01*
X014270Y001728D01*
X014317Y001776D01*
X014361Y001826D01*
X014403Y001879D01*
X014441Y001934D01*
X014476Y001992D01*
X014508Y002051D01*
X014536Y002112D01*
X014561Y002174D01*
X014582Y002238D01*
X014599Y002303D01*
X014613Y002368D01*
X014623Y002435D01*
X014630Y002501D01*
X014632Y002568D01*
X014631Y002569D02*
X014631Y003474D01*
X014631Y005836D02*
X014631Y006899D01*
X011954Y008553D01*
D13*
X008332Y004400D02*
X008257Y004400D01*
X008232Y004375D01*
X008232Y004350D01*
X008257Y004325D01*
X008332Y004325D01*
X008332Y004250D02*
X008257Y004250D01*
X008232Y004275D01*
X008232Y004300D01*
X008257Y004325D01*
X008185Y004325D02*
X008085Y004325D01*
X008085Y004350D02*
X008085Y004250D01*
X007987Y004250D02*
X007987Y004400D01*
X008037Y004400D02*
X007937Y004400D01*
X007890Y004350D02*
X007840Y004400D01*
X007840Y004250D01*
X007890Y004250D02*
X007790Y004250D01*
X008085Y004350D02*
X008135Y004400D01*
X008185Y004350D01*
X008185Y004250D01*
X008332Y004250D02*
X008332Y004400D01*
D14*
X001125Y008449D02*
X000785Y008675D01*
X000785Y008817D02*
X000785Y009044D01*
X000785Y008930D02*
X001125Y008930D01*
X001012Y008817D01*
X001125Y008675D02*
X000785Y008449D01*
X009945Y015225D02*
X011365Y015225D01*
X011365Y018585D02*
X009945Y018585D01*
D15*
X010905Y018365D02*
X010907Y018388D01*
X010913Y018410D01*
X010922Y018432D01*
X010935Y018451D01*
X010950Y018468D01*
X010968Y018482D01*
X010989Y018493D01*
X011011Y018501D01*
X011033Y018505D01*
X011057Y018505D01*
X011079Y018501D01*
X011101Y018493D01*
X011122Y018482D01*
X011140Y018468D01*
X011155Y018451D01*
X011168Y018432D01*
X011177Y018410D01*
X011183Y018388D01*
X011185Y018365D01*
X011183Y018342D01*
X011177Y018320D01*
X011168Y018298D01*
X011155Y018279D01*
X011140Y018262D01*
X011122Y018248D01*
X011101Y018237D01*
X011079Y018229D01*
X011057Y018225D01*
X011033Y018225D01*
X011011Y018229D01*
X010989Y018237D01*
X010968Y018248D01*
X010950Y018262D01*
X010935Y018279D01*
X010922Y018298D01*
X010913Y018320D01*
X010907Y018342D01*
X010905Y018365D01*
D16*
X003905Y009155D02*
X002155Y009155D01*
X002155Y003155D01*
X003905Y003155D01*
X003905Y009155D01*
X002155Y009155D02*
X001405Y009155D01*
X001405Y003155D01*
X002155Y003155D01*
M02*
