%
M48
M72
T01C0.0197
T02C0.0394
T03C0.0400
T04C0.1260
%
T01
X5155Y7655
X6655Y7905
X7655Y8155
X8655Y7905
X11780Y7905
X11780Y8655
X12655Y10530
X11655Y11155
X10655Y11155
X9655Y11405
X14030Y16405
X10905Y16905
X10655Y17905
X9655Y19155
X9155Y19155
X6280Y17905
X8155Y4655
X8155Y3655
X12655Y3655
X12655Y4655
T02
X2655Y3655
X2655Y4655
X2655Y5655
X2655Y6655
X2655Y7655
X2655Y8655
T03
X17265Y6435
X19045Y6435
X19045Y3875
X17265Y3875
T04
X18372Y18372
X2624Y18372
M30
